<svg xmlns="http://www.w3.org/2000/svg" xmlns:xlink="http://www.w3.org/1999/xlink" width="500" zoomAndPan="magnify" viewBox="0 0 375 374.999991" height="500" preserveAspectRatio="xMidYMid meet" version="1.0"><defs><g/><clipPath id="70974154a1"><path d="M 130.3125 187.5 L 244 187.5 L 244 337.5 L 130.3125 337.5 Z M 130.3125 187.5 " clip-rule="nonzero"/></clipPath><clipPath id="caae3580a2"><path d="M 140 186 L 251 186 L 251 291 L 140 291 Z M 140 186 " clip-rule="nonzero"/></clipPath><clipPath id="bd15290363"><path d="M 184.996094 143.351562 L 291.113281 241.796875 L 221.742188 316.574219 L 115.625 218.132812 Z M 184.996094 143.351562 " clip-rule="nonzero"/></clipPath><clipPath id="fc1b35747e"><path d="M 184.996094 143.351562 L 291.113281 241.796875 L 221.742188 316.574219 L 115.625 218.132812 Z M 184.996094 143.351562 " clip-rule="nonzero"/></clipPath><clipPath id="5b1d483738"><path d="M 171.257812 158.160156 L 277.375 256.605469 L 221.367188 316.980469 L 115.246094 218.539062 Z M 171.257812 158.160156 " clip-rule="nonzero"/></clipPath><clipPath id="1f39cd1635"><path d="M 171.257812 158.160156 L 277.375 256.605469 L 222.085938 316.207031 L 115.964844 217.765625 Z M 171.257812 158.160156 " clip-rule="nonzero"/></clipPath><clipPath id="d76d3c65ee"><path d="M 182 224 L 210 224 L 210 252 L 182 252 Z M 182 224 " clip-rule="nonzero"/></clipPath><clipPath id="db244347c9"><path d="M 184.996094 143.351562 L 291.113281 241.796875 L 221.742188 316.574219 L 115.625 218.132812 Z M 184.996094 143.351562 " clip-rule="nonzero"/></clipPath><clipPath id="cd6d3fb500"><path d="M 184.996094 143.351562 L 291.113281 241.796875 L 221.742188 316.574219 L 115.625 218.132812 Z M 184.996094 143.351562 " clip-rule="nonzero"/></clipPath><clipPath id="170e0f1a1a"><path d="M 192 170 L 199 170 L 199 187 L 192 187 Z M 192 170 " clip-rule="nonzero"/></clipPath><clipPath id="72d959eec9"><path d="M 184.996094 143.351562 L 291.113281 241.796875 L 221.742188 316.574219 L 115.625 218.132812 Z M 184.996094 143.351562 " clip-rule="nonzero"/></clipPath><clipPath id="605b10a085"><path d="M 184.996094 143.351562 L 291.113281 241.796875 L 221.742188 316.574219 L 115.625 218.132812 Z M 184.996094 143.351562 " clip-rule="nonzero"/></clipPath><clipPath id="55025db6b6"><path d="M 247 231 L 264 231 L 264 237 L 247 237 Z M 247 231 " clip-rule="nonzero"/></clipPath><clipPath id="dec6f75335"><path d="M 184.996094 143.351562 L 291.113281 241.796875 L 221.742188 316.574219 L 115.625 218.132812 Z M 184.996094 143.351562 " clip-rule="nonzero"/></clipPath><clipPath id="0432113d38"><path d="M 184.996094 143.351562 L 291.113281 241.796875 L 221.742188 316.574219 L 115.625 218.132812 Z M 184.996094 143.351562 " clip-rule="nonzero"/></clipPath><clipPath id="a9d14a8c35"><path d="M 226 192 L 239 192 L 239 206 L 226 206 Z M 226 192 " clip-rule="nonzero"/></clipPath><clipPath id="c802554274"><path d="M 184.996094 143.351562 L 291.113281 241.796875 L 221.742188 316.574219 L 115.625 218.132812 Z M 184.996094 143.351562 " clip-rule="nonzero"/></clipPath><clipPath id="778a911ec7"><path d="M 184.996094 143.351562 L 291.113281 241.796875 L 221.742188 316.574219 L 115.625 218.132812 Z M 184.996094 143.351562 " clip-rule="nonzero"/></clipPath></defs><g clip-path="url(#70974154a1)"><path fill="#a8d945" d="M 197.347656 252.949219 C 195.542969 255.695312 194.148438 258.726562 191.710938 261.03125 C 185.40625 267.03125 178.40625 271.894531 169.726562 273.722656 C 166.054688 274.511719 162.21875 274.132812 158.480469 273.914062 C 152.9375 273.566406 147.460938 272.554688 142.105469 270.976562 C 139.191406 270.125 136.4375 268.988281 133.839844 267.503906 C 131.019531 265.925781 130.324219 263.808594 131.019531 260.714844 C 132.792969 252.886719 138.84375 248.625 144.796875 244.550781 C 152.304688 239.4375 160.828125 237.101562 169.980469 236.878906 C 176.824219 236.691406 183.632812 236.847656 190.476562 237.636719 C 190.507812 237.542969 190.632812 237.320312 190.601562 237.132812 C 189.050781 227.914062 193.039062 220.335938 197.695312 212.914062 C 202.351562 205.402344 208.59375 199.6875 216.355469 195.582031 C 218.761719 194.320312 221.105469 192.929688 223.417969 191.476562 C 227.34375 189.015625 231.71875 188.132812 236.214844 187.753906 C 239.253906 187.5 241.601562 189.046875 242.488281 191.921875 C 245.050781 200.285156 244.070312 208.558594 241.28125 216.671875 C 237.894531 226.523438 231.273438 234.101562 223.324219 240.605469 C 220.660156 242.78125 218 244.992188 214.898438 246.539062 C 213.566406 247.203125 214.421875 247.804688 214.832031 248.402344 C 219.425781 254.9375 222.46875 262.105469 223.578125 270.03125 C 224.144531 274.039062 224.335938 278.050781 224.273438 282.089844 C 224.210938 287.015625 224.335938 291.941406 224.242188 296.835938 C 224.050781 308.296875 221.136719 319.15625 216.703125 329.636719 C 214.515625 334.753906 210.460938 337.5 204.699219 337.34375 C 201.910156 337.277344 200.421875 335.890625 199.152344 333.425781 C 197.0625 329.417969 198.109375 326.132812 199.976562 322.25 C 203.875 314.105469 208.878906 306.273438 210.460938 297.246094 C 211.984375 288.59375 211.414062 279.914062 208.246094 271.515625 C 207.167969 268.640625 206.1875 265.734375 205.140625 262.863281 C 203.84375 259.390625 200.578125 255.191406 197.347656 252.949219 Z M 197.347656 252.949219 " fill-opacity="1" fill-rule="nonzero"/></g><g clip-path="url(#caae3580a2)"><g clip-path="url(#bd15290363)"><g clip-path="url(#fc1b35747e)"><g clip-path="url(#5b1d483738)"><g clip-path="url(#1f39cd1635)"><path fill="#ffde59" d="M 234.414062 231.738281 C 236.039062 234.636719 237.488281 237.644531 238.738281 240.71875 C 244.253906 254.292969 246.675781 268.933594 245.851562 283.578125 C 245.816406 284.199219 245.355469 284.699219 244.738281 284.777344 C 230.195312 286.699219 215.425781 285.371094 201.464844 280.898438 C 198.308594 279.882812 195.195312 278.664062 192.1875 277.257812 C 213.761719 279.191406 232.828125 263.25 234.78125 241.679688 C 235.085938 238.367188 234.960938 235.023438 234.414062 231.738281 Z M 199.261719 199.132812 C 177.683594 197.207031 158.625 213.140625 156.671875 234.707031 C 156.367188 238.023438 156.488281 241.367188 157.039062 244.648438 C 155.402344 241.746094 153.953125 238.734375 152.703125 235.660156 C 147.199219 222.078125 144.773438 207.453125 145.601562 192.808594 C 145.632812 192.191406 146.097656 191.691406 146.710938 191.613281 C 161.253906 189.691406 176.015625 191.011719 189.976562 195.484375 C 193.132812 196.5 196.246094 197.71875 199.253906 199.140625 Z M 219.234375 211.992188 C 233.519531 224.804688 234.675781 246.761719 221.863281 261.066406 C 221.636719 261.308594 221.398438 261.566406 221.171875 261.808594 C 208.292969 276.050781 186.324219 277.191406 172.09375 264.339844 C 157.863281 251.46875 156.761719 229.492188 169.640625 215.25 C 169.847656 215.023438 170.058594 214.796875 170.261719 214.582031 C 183.113281 200.367188 205.007812 199.214844 219.234375 211.992188 Z M 224.652344 211.539062 C 215.328125 202.222656 203.90625 195.261719 191.355469 191.234375 C 176.769531 186.570312 161.324219 185.175781 146.140625 187.183594 C 143.394531 187.550781 141.296875 189.816406 141.140625 192.570312 C 140.277344 207.863281 142.824219 223.164062 148.570312 237.355469 C 157.808594 260.144531 176.6875 277.65625 200.113281 285.171875 C 214.6875 289.828125 230.136719 291.222656 245.320312 289.214844 C 248.054688 288.855469 250.15625 286.589844 250.316406 283.828125 C 251.183594 268.535156 248.636719 253.234375 242.898438 239.050781 C 238.714844 228.746094 232.511719 219.390625 224.652344 211.539062 " fill-opacity="1" fill-rule="nonzero"/></g></g></g></g></g><g clip-path="url(#d76d3c65ee)"><g clip-path="url(#db244347c9)"><g clip-path="url(#cd6d3fb500)"><path fill="#ffde59" d="M 205.371094 247.152344 C 210.429688 241.910156 210.304688 233.578125 205.078125 228.519531 C 199.851562 223.460938 191.511719 223.605469 186.445312 228.839844 C 186.324219 228.972656 186.199219 229.105469 186.070312 229.246094 C 181.011719 234.472656 181.136719 242.820312 186.375 247.871094 C 191.601562 252.929688 199.9375 252.785156 205.003906 247.550781 C 205.128906 247.417969 205.25 247.285156 205.371094 247.152344 " fill-opacity="1" fill-rule="nonzero"/></g></g></g><g clip-path="url(#170e0f1a1a)"><g clip-path="url(#72d959eec9)"><g clip-path="url(#605b10a085)"><path fill="#ffde59" d="M 192.714844 173.066406 L 194.1875 184.574219 C 194.367188 185.796875 195.5 186.636719 196.722656 186.453125 C 197.898438 186.28125 198.742188 185.203125 198.613281 183.996094 L 197.144531 172.488281 C 196.960938 171.265625 195.832031 170.425781 194.609375 170.609375 C 193.414062 170.78125 192.582031 171.871094 192.714844 173.066406 " fill-opacity="1" fill-rule="nonzero"/></g></g></g><g clip-path="url(#55025db6b6)"><g clip-path="url(#dec6f75335)"><g clip-path="url(#0432113d38)"><path fill="#ffde59" d="M 261.132812 231.847656 L 249.535156 231.234375 C 248.304688 231.183594 247.246094 232.132812 247.183594 233.355469 C 247.128906 234.601562 248.070312 235.648438 249.308594 235.710938 L 260.894531 236.316406 C 262.125 236.351562 263.171875 235.390625 263.199219 234.152344 C 263.246094 232.949219 262.335938 231.949219 261.132812 231.847656 " fill-opacity="1" fill-rule="nonzero"/></g></g></g><g clip-path="url(#a9d14a8c35)"><g clip-path="url(#c802554274)"><g clip-path="url(#778a911ec7)"><path fill="#ffde59" d="M 234.65625 192.949219 L 226.765625 201.457031 C 225.953125 202.390625 226.058594 203.804688 227 204.605469 C 227.890625 205.363281 229.199219 205.3125 230.03125 204.492188 L 237.925781 195.980469 C 238.730469 195.039062 238.632812 193.632812 237.683594 192.824219 C 236.800781 192.074219 235.480469 192.117188 234.65625 192.949219 " fill-opacity="1" fill-rule="nonzero"/></g></g></g><g fill="#ffde59" fill-opacity="1"><g transform="translate(91.36663, 101.116033)"><g><path d="M 15.1875 0.5625 C 10.40625 0.5625 6.816406 -0.671875 4.421875 -3.140625 C 2.023438 -5.609375 0.828125 -9.039062 0.828125 -13.4375 C 0.828125 -17.832031 2.171875 -21.195312 4.859375 -23.53125 C 7.554688 -25.875 10.984375 -27.046875 15.140625 -27.046875 C 23.554688 -27.046875 27.597656 -22.816406 27.265625 -14.359375 L 11.578125 -14.359375 L 11.578125 -12.1875 C 11.578125 -8.550781 12.039062 -5.804688 12.96875 -3.953125 C 13.894531 -2.097656 15.507812 -1.171875 17.8125 -1.171875 C 22.113281 -1.171875 24.929688 -3.46875 26.265625 -8.0625 L 27.265625 -7.90625 C 26.554688 -5.226562 25.285156 -3.144531 23.453125 -1.65625 C 21.617188 -0.175781 18.863281 0.5625 15.1875 0.5625 Z M 11.625 -15.46875 L 17.359375 -15.46875 L 17.359375 -18.1875 C 17.359375 -21.195312 17.179688 -23.25 16.828125 -24.34375 C 16.472656 -25.4375 15.765625 -25.984375 14.703125 -25.984375 C 13.648438 -25.984375 12.875 -25.398438 12.375 -24.234375 C 11.875 -23.066406 11.625 -21.050781 11.625 -18.1875 Z M 11.625 -15.46875 "/></g></g></g><g fill="#ffde59" fill-opacity="1"><g transform="translate(120.079533, 101.116033)"><g><path d="M 16.140625 -26.046875 C 14.503906 -26.046875 13.332031 -25.15625 12.625 -23.375 C 11.925781 -21.59375 11.578125 -18.640625 11.578125 -14.515625 L 11.578125 -11.625 C 11.578125 -7.957031 11.984375 -5.320312 12.796875 -3.71875 C 13.609375 -2.125 15.109375 -1.328125 17.296875 -1.328125 C 19.492188 -1.328125 21.238281 -2.066406 22.53125 -3.546875 C 23.832031 -5.035156 24.664062 -6.726562 25.03125 -8.625 L 26.046875 -8.515625 C 25.335938 -5.328125 24.035156 -3.023438 22.140625 -1.609375 C 20.210938 -0.160156 17.5625 0.5625 14.1875 0.5625 C 9.882812 0.5625 6.582031 -0.597656 4.28125 -2.921875 C 1.976562 -5.242188 0.828125 -8.640625 0.828125 -13.109375 C 0.828125 -17.578125 2.132812 -21.015625 4.75 -23.421875 C 7.375 -25.835938 11.019531 -27.046875 15.6875 -27.046875 C 18.988281 -27.046875 21.507812 -26.40625 23.25 -25.125 C 25 -23.84375 25.875 -22.238281 25.875 -20.3125 C 25.875 -18.382812 25.457031 -16.972656 24.625 -16.078125 C 23.789062 -15.191406 22.640625 -14.75 21.171875 -14.75 C 19.703125 -14.75 18.519531 -15.132812 17.625 -15.90625 C 16.738281 -16.6875 16.296875 -17.835938 16.296875 -19.359375 C 16.296875 -20.023438 16.390625 -20.691406 16.578125 -21.359375 L 18.421875 -21.359375 C 18.679688 -22.109375 18.8125 -22.78125 18.8125 -23.375 C 18.8125 -25.15625 17.921875 -26.046875 16.140625 -26.046875 Z M 16.140625 -26.046875 "/></g></g></g><g fill="#ffde59" fill-opacity="1"><g transform="translate(146.956142, 101.116033)"><g><path d="M 18.53125 -10.96875 L 18.53125 -15.6875 C 18.53125 -19.289062 18.332031 -21.914062 17.9375 -23.5625 C 17.550781 -25.21875 16.65625 -26.046875 15.25 -26.046875 C 14.425781 -26.046875 13.765625 -25.8125 13.265625 -25.34375 C 12.765625 -24.882812 12.40625 -24.113281 12.1875 -23.03125 C 11.851562 -21.363281 11.6875 -18.820312 11.6875 -15.40625 L 11.6875 -11.078125 C 11.6875 -7.023438 11.804688 -4.59375 12.046875 -3.78125 C 12.285156 -2.96875 12.535156 -2.300781 12.796875 -1.78125 C 13.203125 -0.882812 14 -0.4375 15.1875 -0.4375 C 16.632812 -0.4375 17.582031 -1.273438 18.03125 -2.953125 C 18.363281 -4.140625 18.53125 -6.8125 18.53125 -10.96875 Z M 15.078125 0.5625 C 10.441406 0.5625 6.9375 -0.625 4.5625 -3 C 2.1875 -5.375 1 -8.773438 1 -13.203125 C 1 -17.640625 2.269531 -21.054688 4.8125 -23.453125 C 7.351562 -25.847656 10.921875 -27.046875 15.515625 -27.046875 C 20.117188 -27.046875 23.550781 -25.941406 25.8125 -23.734375 C 28.082031 -21.523438 29.21875 -18.15625 29.21875 -13.625 C 29.21875 -4.164062 24.503906 0.5625 15.078125 0.5625 Z M 15.078125 0.5625 "/></g></g></g><g fill="#ffde59" fill-opacity="1"><g transform="translate(177.171466, 101.116033)"><g><path d="M 0.328125 -41.734375 L 13.96875 -41.734375 L 13.96875 -1 L 17.078125 -1 L 17.078125 0 L 0.5625 0 L 0.5625 -1 L 3.609375 -1 L 3.609375 -40.734375 L 0.328125 -40.734375 Z M 0.328125 -41.734375 "/></g></g></g><g fill="#ffde59" fill-opacity="1"><g transform="translate(194.755335, 101.116033)"><g><path d="M 18.53125 -10.96875 L 18.53125 -15.6875 C 18.53125 -19.289062 18.332031 -21.914062 17.9375 -23.5625 C 17.550781 -25.21875 16.65625 -26.046875 15.25 -26.046875 C 14.425781 -26.046875 13.765625 -25.8125 13.265625 -25.34375 C 12.765625 -24.882812 12.40625 -24.113281 12.1875 -23.03125 C 11.851562 -21.363281 11.6875 -18.820312 11.6875 -15.40625 L 11.6875 -11.078125 C 11.6875 -7.023438 11.804688 -4.59375 12.046875 -3.78125 C 12.285156 -2.96875 12.535156 -2.300781 12.796875 -1.78125 C 13.203125 -0.882812 14 -0.4375 15.1875 -0.4375 C 16.632812 -0.4375 17.582031 -1.273438 18.03125 -2.953125 C 18.363281 -4.140625 18.53125 -6.8125 18.53125 -10.96875 Z M 15.078125 0.5625 C 10.441406 0.5625 6.9375 -0.625 4.5625 -3 C 2.1875 -5.375 1 -8.773438 1 -13.203125 C 1 -17.640625 2.269531 -21.054688 4.8125 -23.453125 C 7.351562 -25.847656 10.921875 -27.046875 15.515625 -27.046875 C 20.117188 -27.046875 23.550781 -25.941406 25.8125 -23.734375 C 28.082031 -21.523438 29.21875 -18.15625 29.21875 -13.625 C 29.21875 -4.164062 24.503906 0.5625 15.078125 0.5625 Z M 15.078125 0.5625 "/></g></g></g><g fill="#ffde59" fill-opacity="1"><g transform="translate(224.970652, 101.116033)"><g><path d="M 22.875 -29.375 L 24.421875 -30.328125 C 24.648438 -31.472656 24.207031 -32.046875 23.09375 -32.046875 C 21.5 -32.046875 20.703125 -30.820312 20.703125 -28.375 C 20.703125 -27.414062 20.832031 -26.300781 21.09375 -25.03125 C 23.90625 -23.144531 25.3125 -20.726562 25.3125 -17.78125 C 25.3125 -14.832031 24.289062 -12.539062 22.25 -10.90625 C 20.21875 -9.269531 17.457031 -8.453125 13.96875 -8.453125 C 12.519531 -8.453125 11.015625 -8.601562 9.453125 -8.90625 C 7.828125 -7.863281 7.015625 -7.082031 7.015625 -6.5625 C 7.015625 -6.039062 8.203125 -5.78125 10.578125 -5.78125 L 16.25 -5.78125 C 24.664062 -5.78125 28.875 -2.757812 28.875 3.28125 C 28.875 6.539062 27.601562 9.125 25.0625 11.03125 C 22.519531 12.945312 18.5625 13.90625 13.1875 13.90625 C 4.019531 13.90625 -0.5625 11.921875 -0.5625 7.953125 C -0.5625 5.804688 0.867188 4.320312 3.734375 3.5 L 7.0625 5 C 6.769531 6.082031 6.625 7.101562 6.625 8.0625 C 6.625 11.257812 9 12.859375 13.75 12.859375 C 16.632812 12.859375 18.851562 12.316406 20.40625 11.234375 C 21.96875 10.160156 22.75 8.828125 22.75 7.234375 C 22.75 5.640625 22.273438 4.570312 21.328125 4.03125 C 20.390625 3.5 18.507812 3.234375 15.6875 3.234375 L 10.296875 3.234375 C 7.285156 3.234375 5.128906 2.726562 3.828125 1.71875 C 2.535156 0.71875 1.890625 -0.507812 1.890625 -1.96875 C 1.890625 -3.4375 2.351562 -4.660156 3.28125 -5.640625 C 4.207031 -6.628906 5.859375 -7.847656 8.234375 -9.296875 C 3.929688 -10.515625 1.78125 -13.332031 1.78125 -17.75 C 1.78125 -20.53125 2.78125 -22.773438 4.78125 -24.484375 C 6.789062 -26.191406 9.796875 -27.046875 13.796875 -27.046875 C 16.210938 -27.046875 18.269531 -26.582031 19.96875 -25.65625 C 19.75 -26.65625 19.640625 -27.5625 19.640625 -28.375 C 19.640625 -30.457031 20.195312 -31.960938 21.3125 -32.890625 C 22.425781 -33.816406 23.664062 -34.28125 25.03125 -34.28125 C 26.40625 -34.28125 27.507812 -33.914062 28.34375 -33.1875 C 29.175781 -32.46875 29.59375 -31.476562 29.59375 -30.21875 C 29.59375 -28.957031 29.257812 -28.019531 28.59375 -27.40625 C 27.925781 -26.789062 27.117188 -26.484375 26.171875 -26.484375 C 25.234375 -26.484375 24.457031 -26.734375 23.84375 -27.234375 C 23.226562 -27.734375 22.90625 -28.445312 22.875 -29.375 Z M 11.078125 -18.96875 L 11.078125 -15.96875 C 11.078125 -13.476562 11.289062 -11.785156 11.71875 -10.890625 C 12.144531 -10.003906 12.789062 -9.5625 13.65625 -9.5625 C 14.53125 -9.5625 15.160156 -10 15.546875 -10.875 C 15.941406 -11.75 16.140625 -13.539062 16.140625 -16.25 L 16.140625 -18.96875 C 16.140625 -21.863281 15.953125 -23.765625 15.578125 -24.671875 C 15.203125 -25.585938 14.578125 -26.046875 13.703125 -26.046875 C 12.835938 -26.046875 12.179688 -25.570312 11.734375 -24.625 C 11.296875 -23.675781 11.078125 -21.789062 11.078125 -18.96875 Z M 11.078125 -18.96875 "/></g></g></g><g fill="#ffde59" fill-opacity="1"><g transform="translate(254.017428, 101.116033)"><g><path d="M 0.28125 -25.484375 L 0.28125 -26.484375 L 16.40625 -26.484375 L 16.40625 -25.484375 L 13.40625 -25.484375 L 19.46875 -7.015625 L 25.921875 -25.484375 L 22.203125 -25.484375 L 22.203125 -26.484375 L 30.046875 -26.484375 L 30.046875 -25.484375 L 27.265625 -25.484375 L 16.859375 4.5 C 15.628906 7.988281 14.253906 10.425781 12.734375 11.8125 C 11.210938 13.207031 9.359375 13.90625 7.171875 13.90625 C 4.984375 13.90625 3.257812 13.40625 2 12.40625 C 0.738281 11.40625 0.109375 10.125 0.109375 8.5625 C 0.109375 7.007812 0.515625 5.820312 1.328125 5 C 2.148438 4.1875 3.226562 3.78125 4.5625 3.78125 C 7.644531 3.78125 9.1875 5.0625 9.1875 7.625 C 9.1875 8.175781 9.070312 8.84375 8.84375 9.625 L 6.90625 9.625 C 6.601562 10.476562 6.5625 11.179688 6.78125 11.734375 C 7.007812 12.296875 7.515625 12.578125 8.296875 12.578125 C 9.816406 12.578125 11.164062 11.820312 12.34375 10.3125 C 13.53125 8.8125 14.664062 6.523438 15.75 3.453125 L 16.96875 0 L 12.078125 0 L 2.5625 -25.484375 Z M 0.28125 -25.484375 "/></g></g></g><g fill="#ffde59" fill-opacity="1"><g transform="translate(125.55998, 142.597009)"><g><path d="M 0 -25.484375 L 0 -26.484375 L 16.640625 -26.484375 L 16.640625 -25.484375 L 13.125 -25.484375 L 19.8125 -7.015625 L 25.8125 -25.484375 L 22.09375 -25.484375 L 22.09375 -26.484375 L 29.59375 -26.484375 L 29.59375 -25.484375 L 27.15625 -25.484375 L 18.921875 0 L 12.578125 0 L 2.28125 -25.484375 Z M 0 -25.484375 "/></g></g></g><g fill="#ffde59" fill-opacity="1"><g transform="translate(155.163203, 142.597009)"><g><path d="M 8.734375 -30.328125 C 6.765625 -30.328125 5.363281 -30.828125 4.53125 -31.828125 C 3.695312 -32.828125 3.28125 -34.066406 3.28125 -35.546875 C 3.28125 -37.035156 3.734375 -38.257812 4.640625 -39.21875 C 5.554688 -40.1875 6.941406 -40.671875 8.796875 -40.671875 C 10.648438 -40.671875 12.054688 -40.234375 13.015625 -39.359375 C 13.984375 -38.492188 14.46875 -37.253906 14.46875 -35.640625 C 14.46875 -34.023438 14.003906 -32.734375 13.078125 -31.765625 C 12.148438 -30.804688 10.703125 -30.328125 8.734375 -30.328125 Z M 0.328125 -26.484375 L 13.96875 -26.484375 L 13.96875 -1 L 17.078125 -1 L 17.078125 0 L 0.5625 0 L 0.5625 -1 L 3.609375 -1 L 3.609375 -25.484375 L 0.328125 -25.484375 Z M 0.328125 -26.484375 "/></g></g></g><g fill="#ffde59" fill-opacity="1"><g transform="translate(172.802718, 142.597009)"><g><path d="M 1.84375 0.5625 L 1.84375 -9.40625 L 2.5 -9.40625 C 3.46875 -6.175781 4.765625 -3.910156 6.390625 -2.609375 C 8.023438 -1.316406 10.066406 -0.671875 12.515625 -0.671875 C 16.296875 -0.671875 18.1875 -1.875 18.1875 -4.28125 C 18.1875 -5.320312 17.722656 -6.101562 16.796875 -6.625 C 15.359375 -7.4375 13.503906 -8.066406 11.234375 -8.515625 C 8.710938 -9.179688 6.597656 -10.070312 4.890625 -11.1875 C 2.859375 -12.519531 1.84375 -14.628906 1.84375 -17.515625 C 1.84375 -20.410156 2.726562 -22.722656 4.5 -24.453125 C 6.28125 -26.179688 8.65625 -27.046875 11.625 -27.046875 C 13.445312 -27.046875 15.320312 -26.617188 17.25 -25.765625 C 17.957031 -25.460938 18.492188 -25.3125 18.859375 -25.3125 C 19.234375 -25.3125 19.550781 -25.441406 19.8125 -25.703125 C 20.070312 -25.960938 20.382812 -26.445312 20.75 -27.15625 L 21.359375 -27.15625 L 21.359375 -18.640625 L 20.703125 -18.640625 C 18.804688 -23.460938 15.875 -25.875 11.90625 -25.875 C 10.164062 -25.875 8.867188 -25.566406 8.015625 -24.953125 C 7.160156 -24.335938 6.734375 -23.566406 6.734375 -22.640625 C 6.734375 -22.085938 6.863281 -21.648438 7.125 -21.328125 C 7.382812 -21.015625 7.585938 -20.785156 7.734375 -20.640625 C 7.878906 -20.492188 8.117188 -20.335938 8.453125 -20.171875 C 8.785156 -20.003906 9.0625 -19.875 9.28125 -19.78125 C 9.507812 -19.6875 9.851562 -19.566406 10.3125 -19.421875 C 10.78125 -19.273438 11.125 -19.179688 11.34375 -19.140625 C 13.875 -18.503906 15.691406 -17.953125 16.796875 -17.484375 C 17.910156 -17.023438 18.96875 -16.460938 19.96875 -15.796875 C 22.007812 -14.390625 23.03125 -12.117188 23.03125 -8.984375 C 23.03125 -5.847656 22.101562 -3.472656 20.25 -1.859375 C 18.394531 -0.242188 15.851562 0.5625 12.625 0.5625 C 10.332031 0.5625 8.109375 0.0195312 5.953125 -1.0625 C 5.503906 -1.351562 5.148438 -1.5 4.890625 -1.5 C 4.078125 -1.5 3.28125 -0.8125 2.5 0.5625 Z M 1.84375 0.5625 "/></g></g></g><g fill="#ffde59" fill-opacity="1"><g transform="translate(196.952719, 142.597009)"><g><path d="M 3.34375 -7.953125 L 3.34375 -25.484375 L 0.28125 -25.484375 L 0.28125 -26.484375 L 3.34375 -26.484375 L 3.34375 -33.65625 L 13.6875 -36.21875 L 13.6875 -26.484375 L 20.921875 -26.484375 L 20.921875 -25.484375 L 13.6875 -25.484375 L 13.6875 -6.734375 C 13.6875 -4.992188 13.863281 -3.710938 14.21875 -2.890625 C 14.570312 -2.078125 15.300781 -1.671875 16.40625 -1.671875 C 17.519531 -1.671875 18.492188 -2.222656 19.328125 -3.328125 C 20.171875 -4.441406 20.71875 -5.96875 20.96875 -7.90625 L 21.921875 -7.796875 C 21.628906 -5.234375 20.8125 -3.195312 19.46875 -1.6875 C 18.132812 -0.1875 15.925781 0.5625 12.84375 0.5625 C 9.769531 0.5625 7.414062 -0.046875 5.78125 -1.265625 C 4.15625 -2.492188 3.34375 -4.722656 3.34375 -7.953125 Z M 3.34375 -7.953125 "/></g></g></g><g fill="#ffde59" fill-opacity="1"><g transform="translate(218.876915, 142.597009)"><g><path d="M 13.90625 -13.078125 L 15.53125 -13.078125 L 15.53125 -17.359375 C 15.53125 -20.878906 15.332031 -23.242188 14.9375 -24.453125 C 14.550781 -25.660156 13.800781 -26.265625 12.6875 -26.265625 C 12.019531 -26.265625 11.414062 -26.085938 10.875 -25.734375 C 10.34375 -25.378906 10.078125 -24.894531 10.078125 -24.28125 C 10.078125 -23.675781 10.1875 -23.054688 10.40625 -22.421875 L 11.796875 -22.421875 C 12.085938 -21.640625 12.234375 -20.703125 12.234375 -19.609375 C 12.234375 -18.515625 11.769531 -17.566406 10.84375 -16.765625 C 9.914062 -15.972656 8.75 -15.578125 7.34375 -15.578125 C 4.15625 -15.578125 2.5625 -17.117188 2.5625 -20.203125 C 2.5625 -24.765625 6.4375 -27.046875 14.1875 -27.046875 C 18.601562 -27.046875 21.65625 -26.289062 23.34375 -24.78125 C 25.03125 -23.28125 25.875 -20.53125 25.875 -16.53125 L 25.875 -5.234375 C 25.875 -3.304688 26.410156 -2.34375 27.484375 -2.34375 C 28.742188 -2.34375 29.488281 -4.25 29.71875 -8.0625 L 30.546875 -8.015625 C 30.398438 -4.742188 29.785156 -2.492188 28.703125 -1.265625 C 27.628906 -0.046875 25.867188 0.5625 23.421875 0.5625 C 18.972656 0.5625 16.414062 -0.8125 15.75 -3.5625 C 15.257812 -2.15625 14.53125 -1.113281 13.5625 -0.4375 C 12.601562 0.226562 11.195312 0.5625 9.34375 0.5625 C 3.851562 0.5625 1.109375 -1.679688 1.109375 -6.171875 C 1.109375 -8.804688 2.15625 -10.613281 4.25 -11.59375 C 6.351562 -12.582031 9.570312 -13.078125 13.90625 -13.078125 Z M 11.6875 -6.234375 C 11.6875 -4.304688 11.785156 -3.0625 11.984375 -2.5 C 12.191406 -1.945312 12.582031 -1.671875 13.15625 -1.671875 C 13.726562 -1.671875 14.265625 -2.140625 14.765625 -3.078125 C 15.273438 -4.023438 15.53125 -5.335938 15.53125 -7.015625 L 15.53125 -12.1875 L 15.140625 -12.1875 C 12.835938 -12.1875 11.6875 -10.5 11.6875 -7.125 Z M 11.6875 -6.234375 "/></g></g></g></svg>