<svg xmlns="http://www.w3.org/2000/svg" xmlns:xlink="http://www.w3.org/1999/xlink" width="500" zoomAndPan="magnify" viewBox="0 0 375 374.999991" height="500" preserveAspectRatio="xMidYMid meet" version="1.0"><defs><clipPath id="0fa9a9926f"><path d="M 34 48.492188 L 273 48.492188 L 273 364.824219 L 34 364.824219 Z M 34 48.492188 " clip-rule="nonzero"/></clipPath><clipPath id="c84859a7d7"><path d="M 55 45 L 287 45 L 287 265 L 55 265 Z M 55 45 " clip-rule="nonzero"/></clipPath><clipPath id="7de42ae650"><path d="M 148.566406 -44.605469 L 372.359375 163 L 226.066406 320.695312 L 2.277344 113.089844 Z M 148.566406 -44.605469 " clip-rule="nonzero"/></clipPath><clipPath id="577df00b07"><path d="M 148.566406 -44.605469 L 372.359375 163 L 226.066406 320.695312 L 2.277344 113.089844 Z M 148.566406 -44.605469 " clip-rule="nonzero"/></clipPath><clipPath id="6565ddec6d"><path d="M 119.597656 -13.378906 L 343.386719 194.226562 L 225.273438 321.550781 L 1.480469 113.945312 Z M 119.597656 -13.378906 " clip-rule="nonzero"/></clipPath><clipPath id="60c08350fe"><path d="M 119.597656 -13.378906 L 343.386719 194.226562 L 226.785156 319.921875 L 2.996094 112.316406 Z M 119.597656 -13.378906 " clip-rule="nonzero"/></clipPath><clipPath id="fbb6f2ae80"><path d="M 143 127 L 200 127 L 200 184 L 143 184 Z M 143 127 " clip-rule="nonzero"/></clipPath><clipPath id="a3eb25e9f8"><path d="M 148.566406 -44.605469 L 372.359375 163 L 226.066406 320.695312 L 2.277344 113.089844 Z M 148.566406 -44.605469 " clip-rule="nonzero"/></clipPath><clipPath id="412b40150d"><path d="M 148.566406 -44.605469 L 372.359375 163 L 226.066406 320.695312 L 2.277344 113.089844 Z M 148.566406 -44.605469 " clip-rule="nonzero"/></clipPath><clipPath id="a0c7edb4df"><path d="M 164 12 L 178 12 L 178 47 L 164 47 Z M 164 12 " clip-rule="nonzero"/></clipPath><clipPath id="db167ac839"><path d="M 148.566406 -44.605469 L 372.359375 163 L 226.066406 320.695312 L 2.277344 113.089844 Z M 148.566406 -44.605469 " clip-rule="nonzero"/></clipPath><clipPath id="3ad87282b3"><path d="M 148.566406 -44.605469 L 372.359375 163 L 226.066406 320.695312 L 2.277344 113.089844 Z M 148.566406 -44.605469 " clip-rule="nonzero"/></clipPath><clipPath id="70a1abea2f"><path d="M 279 140 L 314 140 L 314 152 L 279 152 Z M 279 140 " clip-rule="nonzero"/></clipPath><clipPath id="72555281f3"><path d="M 148.566406 -44.605469 L 372.359375 163 L 226.066406 320.695312 L 2.277344 113.089844 Z M 148.566406 -44.605469 " clip-rule="nonzero"/></clipPath><clipPath id="f59b9e3047"><path d="M 148.566406 -44.605469 L 372.359375 163 L 226.066406 320.695312 L 2.277344 113.089844 Z M 148.566406 -44.605469 " clip-rule="nonzero"/></clipPath><clipPath id="e5c2471bf5"><path d="M 235 58 L 262 58 L 262 86 L 235 86 Z M 235 58 " clip-rule="nonzero"/></clipPath><clipPath id="7557eeb86f"><path d="M 148.566406 -44.605469 L 372.359375 163 L 226.066406 320.695312 L 2.277344 113.089844 Z M 148.566406 -44.605469 " clip-rule="nonzero"/></clipPath><clipPath id="727abdff4d"><path d="M 148.566406 -44.605469 L 372.359375 163 L 226.066406 320.695312 L 2.277344 113.089844 Z M 148.566406 -44.605469 " clip-rule="nonzero"/></clipPath></defs><g clip-path="url(#0fa9a9926f)"><path fill="#a8d945" d="M 174.621094 186.515625 C 170.8125 192.308594 167.875 198.699219 162.730469 203.5625 C 149.4375 216.210938 134.675781 226.464844 116.371094 230.328125 C 108.621094 231.992188 100.539062 231.191406 92.65625 230.726562 C 80.96875 229.996094 69.410156 227.863281 58.121094 224.535156 C 51.976562 222.738281 46.164062 220.339844 40.6875 217.210938 C 34.742188 213.882812 33.273438 209.421875 34.742188 202.894531 C 38.484375 186.382812 51.242188 177.394531 63.800781 168.804688 C 79.632812 158.019531 97.601562 153.09375 116.90625 152.625 C 131.335938 152.226562 145.695312 152.558594 160.125 154.222656 C 160.191406 154.023438 160.460938 153.558594 160.394531 153.160156 C 157.121094 133.71875 165.535156 117.738281 175.355469 102.089844 C 185.175781 86.246094 198.335938 74.191406 214.699219 65.539062 C 219.777344 62.875 224.722656 59.945312 229.597656 56.882812 C 237.878906 51.6875 247.097656 49.824219 256.585938 49.023438 C 262.996094 48.492188 267.941406 51.753906 269.8125 57.8125 C 275.222656 75.457031 273.152344 92.902344 267.273438 110.015625 C 260.125 130.789062 246.164062 146.765625 229.398438 160.484375 C 223.785156 165.078125 218.175781 169.738281 211.628906 173 C 208.824219 174.398438 210.625 175.664062 211.496094 176.929688 C 221.179688 190.710938 227.59375 205.824219 229.929688 222.539062 C 231.132812 230.992188 231.535156 239.449219 231.402344 247.972656 C 231.265625 258.359375 231.535156 268.746094 231.335938 279.066406 C 230.933594 303.234375 224.789062 326.136719 215.4375 348.242188 C 210.828125 359.03125 202.277344 364.824219 190.117188 364.488281 C 184.242188 364.355469 181.101562 361.425781 178.429688 356.234375 C 174.019531 347.777344 176.222656 340.851562 180.164062 332.664062 C 188.382812 315.484375 198.9375 298.972656 202.277344 279.929688 C 205.484375 261.6875 204.28125 243.378906 197.601562 225.667969 C 195.328125 219.609375 193.257812 213.480469 191.054688 207.421875 C 188.316406 200.097656 181.433594 191.242188 174.621094 186.515625 Z M 174.621094 186.515625 " fill-opacity="1" fill-rule="nonzero"/></g><g clip-path="url(#c84859a7d7)"><g clip-path="url(#7de42ae650)"><g clip-path="url(#577df00b07)"><g clip-path="url(#6565ddec6d)"><g clip-path="url(#60c08350fe)"><path fill="#ffde59" d="M 252.785156 141.789062 C 256.214844 147.894531 259.269531 154.246094 261.90625 160.726562 C 273.535156 189.355469 278.644531 220.226562 276.902344 251.113281 C 276.835938 252.417969 275.859375 253.472656 274.558594 253.636719 C 243.894531 257.6875 212.742188 254.886719 183.304688 245.457031 C 176.644531 243.3125 170.082031 240.742188 163.738281 237.777344 C 209.230469 241.855469 249.4375 208.234375 253.558594 162.753906 C 254.203125 155.761719 253.941406 148.710938 252.785156 141.789062 Z M 178.65625 73.023438 C 133.144531 68.964844 92.957031 102.566406 88.835938 148.050781 C 88.195312 155.039062 88.453125 162.09375 89.609375 169.011719 C 86.160156 162.890625 83.105469 156.539062 80.46875 150.058594 C 68.859375 121.410156 63.75 90.574219 65.492188 59.691406 C 65.558594 58.382812 66.535156 57.328125 67.835938 57.164062 C 98.503906 53.113281 129.632812 55.898438 159.070312 65.328125 C 165.730469 67.472656 172.292969 70.042969 178.640625 73.042969 Z M 220.777344 100.140625 C 250.902344 127.160156 253.339844 173.46875 226.320312 203.628906 C 225.839844 204.148438 225.339844 204.683594 224.859375 205.203125 C 197.703125 235.234375 151.375 237.636719 121.363281 210.535156 C 91.347656 183.398438 89.027344 137.046875 116.183594 107.015625 C 116.628906 106.535156 117.070312 106.058594 117.496094 105.601562 C 144.597656 75.628906 190.773438 73.195312 220.777344 100.140625 Z M 232.199219 99.1875 C 212.535156 79.539062 188.449219 64.859375 161.984375 56.371094 C 131.226562 46.53125 98.648438 43.589844 66.628906 47.828125 C 60.839844 48.605469 56.414062 53.378906 56.089844 59.1875 C 54.265625 91.4375 59.636719 123.699219 71.753906 153.632812 C 91.238281 201.6875 131.050781 238.625 180.453125 254.46875 C 211.1875 264.289062 243.765625 267.230469 275.789062 262.996094 C 281.554688 262.238281 285.984375 257.460938 286.324219 251.636719 C 288.148438 219.382812 282.777344 187.121094 270.679688 157.207031 C 261.859375 135.472656 248.773438 115.75 232.199219 99.1875 " fill-opacity="1" fill-rule="nonzero"/></g></g></g></g></g><g clip-path="url(#fbb6f2ae80)"><g clip-path="url(#a3eb25e9f8)"><g clip-path="url(#412b40150d)"><path fill="#ffde59" d="M 191.542969 174.292969 C 202.207031 163.234375 201.945312 145.667969 190.917969 134.996094 C 179.894531 124.328125 162.3125 124.632812 151.628906 135.671875 C 151.367188 135.953125 151.109375 136.230469 150.832031 136.527344 C 140.167969 147.546875 140.433594 165.152344 151.476562 175.804688 C 162.5 186.476562 180.082031 186.167969 190.769531 175.128906 C 191.027344 174.851562 191.285156 174.570312 191.542969 174.292969 " fill-opacity="1" fill-rule="nonzero"/></g></g></g><g clip-path="url(#a0c7edb4df)"><g clip-path="url(#db167ac839)"><g clip-path="url(#3ad87282b3)"><path fill="#ffde59" d="M 164.851562 18.054688 L 167.953125 42.324219 C 168.335938 44.902344 170.722656 46.671875 173.296875 46.285156 C 175.777344 45.921875 177.554688 43.648438 177.289062 41.105469 L 174.1875 16.835938 C 173.804688 14.257812 171.417969 12.488281 168.84375 12.875 C 166.324219 13.238281 164.566406 15.53125 164.851562 18.054688 " fill-opacity="1" fill-rule="nonzero"/></g></g></g><g clip-path="url(#70a1abea2f)"><g clip-path="url(#72555281f3)"><g clip-path="url(#f59b9e3047)"><path fill="#ffde59" d="M 309.132812 142.015625 L 284.675781 140.722656 C 282.082031 140.613281 279.851562 142.617188 279.714844 145.191406 C 279.601562 147.828125 281.582031 150.035156 284.199219 150.164062 L 308.632812 151.4375 C 311.226562 151.511719 313.4375 149.488281 313.492188 146.878906 C 313.589844 144.339844 311.671875 142.226562 309.132812 142.015625 " fill-opacity="1" fill-rule="nonzero"/></g></g></g><g clip-path="url(#e5c2471bf5)"><g clip-path="url(#7557eeb86f)"><g clip-path="url(#727abdff4d)"><path fill="#ffde59" d="M 253.300781 59.984375 L 236.652344 77.929688 C 234.941406 79.894531 235.167969 82.878906 237.148438 84.566406 C 239.03125 86.164062 241.789062 86.058594 243.546875 84.324219 L 260.195312 66.378906 C 261.886719 64.394531 261.683594 61.429688 259.679688 59.71875 C 257.820312 58.140625 255.039062 58.226562 253.300781 59.984375 " fill-opacity="1" fill-rule="nonzero"/></g></g></g></svg>