<svg xmlns="http://www.w3.org/2000/svg" xmlns:xlink="http://www.w3.org/1999/xlink" width="500" zoomAndPan="magnify" viewBox="0 0 375 156.749997" height="209" preserveAspectRatio="xMidYMid meet" version="1.0"><defs><g/><clipPath id="dddc6fd1d5"><path d="M 126.691406 103.363281 L 161.851562 103.363281 L 161.851562 149.285156 L 126.691406 149.285156 Z M 126.691406 103.363281 " clip-rule="nonzero"/></clipPath><clipPath id="bfa39b4fde"><path d="M 126.804688 22.820312 L 159 22.820312 L 159 80.804688 L 126.804688 80.804688 Z M 126.804688 22.820312 " clip-rule="nonzero"/></clipPath><clipPath id="31ee3796fb"><path d="M 160 50 L 167.496094 50 L 167.496094 53 L 160 53 Z M 160 50 " clip-rule="nonzero"/></clipPath><clipPath id="a6e64f81a8"><path d="M 207.1875 22.820312 L 239 22.820312 L 239 80.804688 L 207.1875 80.804688 Z M 207.1875 22.820312 " clip-rule="nonzero"/></clipPath><clipPath id="010243ef77"><path d="M 241 50 L 247.882812 50 L 247.882812 53 L 241 53 Z M 241 50 " clip-rule="nonzero"/></clipPath></defs><g fill="#ffde59" fill-opacity="1"><g transform="translate(22.540968, 75.317573)"><g><path d="M 26.125 0.953125 C 17.894531 0.953125 11.722656 -1.164062 7.609375 -5.40625 C 3.492188 -9.644531 1.4375 -15.539062 1.4375 -23.09375 C 1.4375 -30.65625 3.75 -36.445312 8.375 -40.46875 C 13 -44.488281 18.878906 -46.5 26.015625 -46.5 C 40.492188 -46.5 47.445312 -39.226562 46.875 -24.6875 L 19.90625 -24.6875 L 19.90625 -20.953125 C 19.90625 -14.703125 20.703125 -9.984375 22.296875 -6.796875 C 23.890625 -3.609375 26.660156 -2.015625 30.609375 -2.015625 C 38.015625 -2.015625 42.863281 -5.96875 45.15625 -13.875 L 46.875 -13.578125 C 45.664062 -8.992188 43.484375 -5.425781 40.328125 -2.875 C 37.171875 -0.320312 32.4375 0.953125 26.125 0.953125 Z M 20 -26.59375 L 29.84375 -26.59375 L 29.84375 -31.28125 C 29.84375 -36.445312 29.539062 -39.96875 28.9375 -41.84375 C 28.332031 -43.726562 27.117188 -44.671875 25.296875 -44.671875 C 23.484375 -44.671875 22.144531 -43.664062 21.28125 -41.65625 C 20.425781 -39.65625 20 -36.195312 20 -31.28125 Z M 20 -26.59375 "/></g></g></g><g fill="#ffde59" fill-opacity="1"><g transform="translate(71.903451, 75.317573)"><g><path d="M 27.75 -44.78125 C 24.9375 -44.78125 22.925781 -43.25 21.71875 -40.1875 C 20.507812 -37.125 19.90625 -32.050781 19.90625 -24.96875 L 19.90625 -20 C 19.90625 -13.6875 20.601562 -9.15625 22 -6.40625 C 23.40625 -3.664062 25.988281 -2.296875 29.75 -2.296875 C 33.519531 -2.296875 36.519531 -3.570312 38.75 -6.125 C 40.976562 -8.675781 42.410156 -11.578125 43.046875 -14.828125 L 44.78125 -14.640625 C 43.5625 -9.148438 41.328125 -5.195312 38.078125 -2.78125 C 34.765625 -0.289062 30.203125 0.953125 24.390625 0.953125 C 16.992188 0.953125 11.316406 -1.035156 7.359375 -5.015625 C 3.410156 -9.003906 1.4375 -14.84375 1.4375 -22.53125 C 1.4375 -30.21875 3.679688 -36.132812 8.171875 -40.28125 C 12.671875 -44.425781 18.941406 -46.5 26.984375 -46.5 C 32.660156 -46.5 36.992188 -45.394531 39.984375 -43.1875 C 42.984375 -40.988281 44.484375 -38.226562 44.484375 -34.90625 C 44.484375 -31.59375 43.765625 -29.171875 42.328125 -27.640625 C 40.898438 -26.117188 38.925781 -25.359375 36.40625 -25.359375 C 33.882812 -25.359375 31.859375 -26.023438 30.328125 -27.359375 C 28.796875 -28.703125 28.03125 -30.679688 28.03125 -33.296875 C 28.03125 -34.441406 28.191406 -35.585938 28.515625 -36.734375 L 31.671875 -36.734375 C 32.117188 -38.015625 32.34375 -39.164062 32.34375 -40.1875 C 32.34375 -43.25 30.8125 -44.78125 27.75 -44.78125 Z M 27.75 -44.78125 "/></g></g></g><g fill="#ffde59" fill-opacity="1"><g transform="translate(118.103747, 75.317573)"><g/></g></g><g fill="#ffde59" fill-opacity="1"><g transform="translate(135.323213, 75.317573)"><g/></g></g><g fill="#ffde59" fill-opacity="1"><g transform="translate(152.54268, 75.317573)"><g/></g></g><g fill="#ffde59" fill-opacity="1"><g transform="translate(169.752943, 75.317573)"><g><path d="M 0.578125 -71.75 L 24.015625 -71.75 L 24.015625 -1.71875 L 29.375 -1.71875 L 29.375 0 L 0.953125 0 L 0.953125 -1.71875 L 6.21875 -1.71875 L 6.21875 -70.03125 L 0.578125 -70.03125 Z M 0.578125 -71.75 "/></g></g></g><g fill="#ffde59" fill-opacity="1"><g transform="translate(199.977867, 75.317573)"><g/></g></g><g fill="#ffde59" fill-opacity="1"><g transform="translate(217.197333, 75.317573)"><g/></g></g><g fill="#ffde59" fill-opacity="1"><g transform="translate(234.4168, 75.317573)"><g/></g></g><g fill="#ffde59" fill-opacity="1"><g transform="translate(251.627056, 75.317573)"><g><path d="M 39.328125 -50.515625 L 42 -52.140625 C 42.382812 -54.117188 41.617188 -55.109375 39.703125 -55.109375 C 36.960938 -55.109375 35.59375 -53.003906 35.59375 -48.796875 C 35.59375 -47.140625 35.816406 -45.222656 36.265625 -43.046875 C 41.109375 -39.796875 43.53125 -35.632812 43.53125 -30.5625 C 43.53125 -25.5 41.773438 -21.5625 38.265625 -18.75 C 34.753906 -15.945312 30.003906 -14.546875 24.015625 -14.546875 C 21.523438 -14.546875 18.941406 -14.800781 16.265625 -15.3125 C 13.453125 -13.519531 12.046875 -12.175781 12.046875 -11.28125 C 12.046875 -10.394531 14.085938 -9.953125 18.171875 -9.953125 L 27.9375 -9.953125 C 42.414062 -9.953125 49.65625 -4.753906 49.65625 5.640625 C 49.65625 11.253906 47.46875 15.703125 43.09375 18.984375 C 38.726562 22.273438 31.921875 23.921875 22.671875 23.921875 C 6.921875 23.921875 -0.953125 20.507812 -0.953125 13.6875 C -0.953125 9.976562 1.5 7.425781 6.40625 6.03125 L 12.15625 8.609375 C 11.644531 10.460938 11.390625 12.21875 11.390625 13.875 C 11.390625 19.351562 15.46875 22.09375 23.625 22.09375 C 28.601562 22.09375 32.429688 21.164062 35.109375 19.3125 C 37.785156 17.46875 39.125 15.175781 39.125 12.4375 C 39.125 9.695312 38.3125 7.863281 36.6875 6.9375 C 35.0625 6.007812 31.828125 5.546875 26.984375 5.546875 L 17.703125 5.546875 C 12.535156 5.546875 8.832031 4.679688 6.59375 2.953125 C 4.363281 1.234375 3.25 -0.878906 3.25 -3.390625 C 3.25 -5.910156 4.046875 -8.015625 5.640625 -9.703125 C 7.234375 -11.398438 10.070312 -13.492188 14.15625 -15.984375 C 6.757812 -18.085938 3.0625 -22.929688 3.0625 -30.515625 C 3.0625 -35.296875 4.78125 -39.15625 8.21875 -42.09375 C 11.664062 -45.03125 16.835938 -46.5 23.734375 -46.5 C 27.867188 -46.5 31.40625 -45.703125 34.34375 -44.109375 C 33.957031 -45.828125 33.765625 -47.390625 33.765625 -48.796875 C 33.765625 -52.367188 34.722656 -54.953125 36.640625 -56.546875 C 38.554688 -58.140625 40.691406 -58.9375 43.046875 -58.9375 C 45.410156 -58.9375 47.304688 -58.3125 48.734375 -57.0625 C 50.171875 -55.820312 50.890625 -54.117188 50.890625 -51.953125 C 50.890625 -49.785156 50.316406 -48.175781 49.171875 -47.125 C 48.023438 -46.070312 46.640625 -45.546875 45.015625 -45.546875 C 43.390625 -45.546875 42.050781 -45.972656 41 -46.828125 C 39.945312 -47.691406 39.390625 -48.921875 39.328125 -50.515625 Z M 19.03125 -32.625 L 19.03125 -27.453125 C 19.03125 -23.179688 19.394531 -20.28125 20.125 -18.75 C 20.863281 -17.21875 21.984375 -16.453125 23.484375 -16.453125 C 24.984375 -16.453125 26.066406 -17.203125 26.734375 -18.703125 C 27.410156 -20.203125 27.75 -23.28125 27.75 -27.9375 L 27.75 -32.625 C 27.75 -37.601562 27.425781 -40.875 26.78125 -42.4375 C 26.144531 -44 25.078125 -44.78125 23.578125 -44.78125 C 22.078125 -44.78125 20.941406 -43.960938 20.171875 -42.328125 C 19.410156 -40.703125 19.03125 -37.46875 19.03125 -32.625 Z M 19.03125 -32.625 "/></g></g></g><g fill="#ffde59" fill-opacity="1"><g transform="translate(301.563524, 75.317573)"><g><path d="M 0.484375 -43.8125 L 0.484375 -45.546875 L 28.21875 -45.546875 L 28.21875 -43.8125 L 23.0625 -43.8125 L 33.484375 -12.046875 L 44.578125 -43.8125 L 38.171875 -43.8125 L 38.171875 -45.546875 L 51.65625 -45.546875 L 51.65625 -43.8125 L 46.875 -43.8125 L 28.984375 7.75 C 26.878906 13.75 24.519531 17.941406 21.90625 20.328125 C 19.289062 22.722656 16.101562 23.921875 12.34375 23.921875 C 8.582031 23.921875 5.613281 23.054688 3.4375 21.328125 C 1.269531 19.609375 0.1875 17.410156 0.1875 14.734375 C 0.1875 12.054688 0.890625 10.015625 2.296875 8.609375 C 3.703125 7.203125 5.550781 6.5 7.84375 6.5 C 13.132812 6.5 15.78125 8.703125 15.78125 13.109375 C 15.78125 14.066406 15.59375 15.210938 15.21875 16.546875 L 11.859375 16.546875 C 11.347656 18.015625 11.285156 19.226562 11.671875 20.1875 C 12.054688 21.144531 12.914062 21.625 14.25 21.625 C 16.863281 21.625 19.191406 20.332031 21.234375 17.75 C 23.273438 15.164062 25.222656 11.226562 27.078125 5.9375 L 29.1875 0 L 20.765625 0 L 4.40625 -43.8125 Z M 0.484375 -43.8125 "/></g></g></g><g fill="#ffde59" fill-opacity="1"><g transform="translate(78.977269, 151.373168)"><g><path d="M 0 -43.8125 L 0 -45.546875 L 28.609375 -45.546875 L 28.609375 -43.8125 L 22.578125 -43.8125 L 34.0625 -12.046875 L 44.390625 -43.8125 L 37.984375 -43.8125 L 37.984375 -45.546875 L 50.890625 -45.546875 L 50.890625 -43.8125 L 46.6875 -43.8125 L 32.53125 0 L 21.625 0 L 3.921875 -43.8125 Z M 0 -43.8125 "/></g></g></g><g fill="#ffde59" fill-opacity="1"><g transform="translate(129.864116, 151.373168)"><g/></g></g><g fill="#ffde59" fill-opacity="1"><g transform="translate(147.083582, 151.373168)"><g/></g></g><g fill="#ffde59" fill-opacity="1"><g transform="translate(164.29317, 151.373168)"><g><path d="M 3.15625 0.953125 L 3.15625 -16.171875 L 4.3125 -16.171875 C 5.96875 -10.617188 8.195312 -6.722656 11 -4.484375 C 13.8125 -2.253906 17.320312 -1.140625 21.53125 -1.140625 C 28.03125 -1.140625 31.28125 -3.210938 31.28125 -7.359375 C 31.28125 -9.148438 30.484375 -10.492188 28.890625 -11.390625 C 26.398438 -12.785156 23.210938 -13.867188 19.328125 -14.640625 C 14.984375 -15.785156 11.347656 -17.316406 8.421875 -19.234375 C 4.910156 -21.523438 3.15625 -25.15625 3.15625 -30.125 C 3.15625 -35.101562 4.6875 -39.078125 7.75 -42.046875 C 10.8125 -45.015625 14.894531 -46.5 20 -46.5 C 23.125 -46.5 26.34375 -45.765625 29.65625 -44.296875 C 30.863281 -43.785156 31.785156 -43.53125 32.421875 -43.53125 C 33.066406 -43.53125 33.613281 -43.753906 34.0625 -44.203125 C 34.507812 -44.648438 35.050781 -45.476562 35.6875 -46.6875 L 36.734375 -46.6875 L 36.734375 -32.046875 L 35.59375 -32.046875 C 32.332031 -40.335938 27.289062 -44.484375 20.46875 -44.484375 C 17.476562 -44.484375 15.25 -43.957031 13.78125 -42.90625 C 12.3125 -41.851562 11.578125 -40.53125 11.578125 -38.9375 C 11.578125 -37.976562 11.800781 -37.226562 12.25 -36.6875 C 12.695312 -36.144531 13.046875 -35.742188 13.296875 -35.484375 C 13.554688 -35.234375 13.972656 -34.960938 14.546875 -34.671875 C 15.117188 -34.390625 15.59375 -34.164062 15.96875 -34 C 16.351562 -33.84375 16.941406 -33.632812 17.734375 -33.375 C 18.535156 -33.125 19.128906 -32.96875 19.515625 -32.90625 C 23.847656 -31.820312 26.972656 -30.878906 28.890625 -30.078125 C 30.804688 -29.285156 32.625 -28.316406 34.34375 -27.171875 C 37.851562 -24.742188 39.609375 -20.832031 39.609375 -15.4375 C 39.609375 -10.050781 38.015625 -5.972656 34.828125 -3.203125 C 31.640625 -0.429688 27.269531 0.953125 21.71875 0.953125 C 17.757812 0.953125 13.929688 0.03125 10.234375 -1.8125 C 9.472656 -2.320312 8.867188 -2.578125 8.421875 -2.578125 C 7.015625 -2.578125 5.644531 -1.398438 4.3125 0.953125 Z M 3.15625 0.953125 "/></g></g></g><g fill="#ffde59" fill-opacity="1"><g transform="translate(205.811231, 151.373168)"><g><path d="M 5.734375 -13.6875 L 5.734375 -43.8125 L 0.484375 -43.8125 L 0.484375 -45.546875 L 5.734375 -45.546875 L 5.734375 -57.875 L 23.53125 -62.28125 L 23.53125 -45.546875 L 35.96875 -45.546875 L 35.96875 -43.8125 L 23.53125 -43.8125 L 23.53125 -11.578125 C 23.53125 -8.578125 23.832031 -6.375 24.4375 -4.96875 C 25.050781 -3.570312 26.3125 -2.875 28.21875 -2.875 C 30.132812 -2.875 31.8125 -3.828125 33.25 -5.734375 C 34.6875 -7.648438 35.625 -10.265625 36.0625 -13.578125 L 37.6875 -13.390625 C 37.175781 -8.992188 35.773438 -5.503906 33.484375 -2.921875 C 31.191406 -0.335938 27.394531 0.953125 22.09375 0.953125 C 16.800781 0.953125 12.75 -0.0976562 9.9375 -2.203125 C 7.132812 -4.304688 5.734375 -8.132812 5.734375 -13.6875 Z M 5.734375 -13.6875 "/></g></g></g><g fill="#ffde59" fill-opacity="1"><g transform="translate(243.502741, 151.373168)"><g><path d="M 23.921875 -22.484375 L 26.6875 -22.484375 L 26.6875 -29.84375 C 26.6875 -35.90625 26.351562 -39.972656 25.6875 -42.046875 C 25.019531 -44.117188 23.726562 -45.15625 21.8125 -45.15625 C 20.664062 -45.15625 19.628906 -44.851562 18.703125 -44.25 C 17.773438 -43.644531 17.3125 -42.816406 17.3125 -41.765625 C 17.3125 -40.710938 17.503906 -39.644531 17.890625 -38.5625 L 20.28125 -38.5625 C 20.789062 -37.21875 21.046875 -35.601562 21.046875 -33.71875 C 21.046875 -31.84375 20.25 -30.21875 18.65625 -28.84375 C 17.0625 -27.46875 15.050781 -26.78125 12.625 -26.78125 C 7.144531 -26.78125 4.40625 -29.429688 4.40625 -34.734375 C 4.40625 -42.578125 11.066406 -46.5 24.390625 -46.5 C 31.984375 -46.5 37.226562 -45.207031 40.125 -42.625 C 43.03125 -40.039062 44.484375 -35.304688 44.484375 -28.421875 L 44.484375 -9 C 44.484375 -5.675781 45.410156 -4.015625 47.265625 -4.015625 C 49.429688 -4.015625 50.707031 -7.300781 51.09375 -13.875 L 52.53125 -13.78125 C 52.269531 -8.164062 51.210938 -4.304688 49.359375 -2.203125 C 47.515625 -0.0976562 44.488281 0.953125 40.28125 0.953125 C 32.625 0.953125 28.222656 -1.40625 27.078125 -6.125 C 26.242188 -3.695312 25 -1.910156 23.34375 -0.765625 C 21.6875 0.378906 19.265625 0.953125 16.078125 0.953125 C 6.628906 0.953125 1.90625 -2.90625 1.90625 -10.625 C 1.90625 -15.144531 3.707031 -18.25 7.3125 -19.9375 C 10.914062 -21.632812 16.453125 -22.484375 23.921875 -22.484375 Z M 20.09375 -10.71875 C 20.09375 -7.394531 20.265625 -5.253906 20.609375 -4.296875 C 20.960938 -3.347656 21.632812 -2.875 22.625 -2.875 C 23.613281 -2.875 24.535156 -3.6875 25.390625 -5.3125 C 26.253906 -6.9375 26.6875 -9.179688 26.6875 -12.046875 L 26.6875 -20.953125 L 26.015625 -20.953125 C 22.066406 -20.953125 20.09375 -18.050781 20.09375 -12.25 Z M 20.09375 -10.71875 "/></g></g></g><g clip-path="url(#dddc6fd1d5)"><path fill="#78b45e" d="M 147.230469 123.402344 C 146.679688 124.242188 146.25 125.167969 145.503906 125.875 C 143.570312 127.710938 141.425781 129.199219 138.769531 129.761719 C 137.640625 130.003906 136.46875 129.886719 135.324219 129.820312 C 133.625 129.710938 131.945312 129.402344 130.304688 128.917969 C 129.410156 128.660156 128.566406 128.3125 127.773438 127.855469 C 126.90625 127.375 126.695312 126.726562 126.90625 125.777344 C 127.453125 123.382812 129.304688 122.078125 131.128906 120.828125 C 133.429688 119.265625 136.039062 118.546875 138.84375 118.480469 C 140.941406 118.421875 143.027344 118.472656 145.125 118.714844 C 145.136719 118.683594 145.171875 118.617188 145.164062 118.558594 C 144.6875 115.734375 145.910156 113.417969 147.339844 111.144531 C 148.765625 108.84375 150.675781 107.09375 153.054688 105.839844 C 153.792969 105.453125 154.511719 105.027344 155.21875 104.582031 C 156.421875 103.828125 157.761719 103.558594 159.140625 103.441406 C 160.070312 103.363281 160.789062 103.839844 161.0625 104.71875 C 161.847656 107.277344 161.546875 109.8125 160.691406 112.296875 C 159.652344 115.3125 157.625 117.628906 155.191406 119.621094 C 154.375 120.289062 153.558594 120.964844 152.609375 121.4375 C 152.199219 121.640625 152.460938 121.824219 152.589844 122.007812 C 153.996094 124.007812 154.925781 126.203125 155.265625 128.628906 C 155.441406 129.855469 155.5 131.085938 155.480469 132.320312 C 155.460938 133.828125 155.5 135.335938 155.472656 136.835938 C 155.414062 140.34375 154.519531 143.667969 153.160156 146.878906 C 152.492188 148.445312 151.25 149.285156 149.484375 149.238281 C 148.628906 149.21875 148.171875 148.792969 147.785156 148.039062 C 147.144531 146.808594 147.464844 145.804688 148.035156 144.617188 C 149.230469 142.121094 150.765625 139.726562 151.25 136.960938 C 151.714844 134.3125 151.539062 131.65625 150.570312 129.085938 C 150.238281 128.203125 149.9375 127.316406 149.617188 126.4375 C 149.222656 125.371094 148.222656 124.085938 147.230469 123.402344 Z M 147.230469 123.402344 " fill-opacity="1" fill-rule="nonzero"/></g><g clip-path="url(#bfa39b4fde)"><path fill="#78b45e" d="M 154.992188 42.125 C 154.585938 40.855469 154.09375 39.605469 153.53125 38.398438 C 151.046875 33.066406 147.402344 28.355469 142.875 24.601562 C 142.683594 24.441406 142.410156 24.441406 142.21875 24.601562 C 137.6875 28.355469 134.050781 33.066406 131.558594 38.398438 C 130.996094 39.605469 130.507812 40.855469 130.101562 42.125 C 135.414062 35.246094 145.296875 33.988281 152.167969 39.300781 C 153.226562 40.117188 154.175781 41.066406 154.992188 42.125 Z M 154.992188 61.375 C 149.671875 68.25 139.792969 69.511719 132.921875 64.195312 C 131.863281 63.382812 130.914062 62.429688 130.101562 61.375 C 130.507812 62.648438 130.996094 63.898438 131.558594 65.105469 C 134.050781 70.433594 137.6875 75.140625 142.21875 78.894531 C 142.410156 79.054688 142.683594 79.054688 142.875 78.894531 C 147.402344 75.140625 151.039062 70.433594 153.53125 65.105469 C 154.09375 63.898438 154.585938 62.648438 154.988281 61.375 Z M 156.660156 51.984375 C 156.789062 44.28125 150.648438 37.945312 142.949219 37.808594 C 142.816406 37.808594 142.675781 37.808594 142.542969 37.808594 C 134.847656 37.710938 128.519531 43.867188 128.417969 51.566406 C 128.320312 59.269531 134.480469 65.59375 142.175781 65.691406 C 142.300781 65.691406 142.425781 65.691406 142.542969 65.691406 C 150.226562 65.789062 156.535156 59.660156 156.660156 51.984375 Z M 158.269531 50.511719 C 158.464844 55.800781 157.394531 61.0625 155.15625 65.859375 C 152.550781 71.425781 148.75 76.351562 144.019531 80.273438 C 143.164062 80.980469 141.925781 80.980469 141.074219 80.273438 C 136.34375 76.351562 132.539062 71.425781 129.933594 65.859375 C 125.757812 56.914062 125.757812 46.574219 129.933594 37.628906 C 132.539062 32.066406 136.34375 27.140625 141.074219 23.21875 C 141.925781 22.511719 143.164062 22.511719 144.019531 23.21875 C 148.75 27.140625 152.550781 32.066406 155.15625 37.628906 C 157.046875 41.675781 158.101562 46.054688 158.269531 50.511719 " fill-opacity="1" fill-rule="nonzero"/></g><path fill="#78b45e" d="M 142.542969 46.460938 C 145.464844 46.40625 147.878906 48.71875 147.941406 51.636719 C 148 54.558594 145.683594 56.972656 142.765625 57.035156 C 142.691406 57.035156 142.621094 57.035156 142.542969 57.035156 C 139.628906 57.097656 137.207031 54.78125 137.152344 51.859375 C 137.089844 48.9375 139.40625 46.523438 142.328125 46.460938 C 142.398438 46.460938 142.472656 46.460938 142.542969 46.460938 " fill-opacity="1" fill-rule="nonzero"/><path fill="#78b45e" d="M 160.867188 70.417969 L 157.886719 66.84375 C 157.578125 66.457031 157.636719 65.894531 158.023438 65.585938 C 158.398438 65.285156 158.945312 65.332031 159.261719 65.699219 L 162.246094 69.273438 C 162.554688 69.660156 162.492188 70.222656 162.105469 70.53125 C 161.730469 70.835938 161.183594 70.785156 160.867188 70.417969 " fill-opacity="1" fill-rule="nonzero"/><path fill="#78b45e" d="M 162.246094 34.230469 L 159.261719 37.808594 C 158.945312 38.1875 158.375 38.238281 158 37.921875 C 157.617188 37.597656 157.566406 37.035156 157.886719 36.652344 L 160.867188 33.078125 C 161.191406 32.707031 161.761719 32.660156 162.132812 32.992188 C 162.5 33.304688 162.542969 33.847656 162.246094 34.230469 " fill-opacity="1" fill-rule="nonzero"/><g clip-path="url(#31ee3796fb)"><path fill="#78b45e" d="M 166.460938 52.644531 L 161.808594 52.644531 C 161.3125 52.628906 160.925781 52.210938 160.945312 51.714844 C 160.964844 51.246094 161.335938 50.875 161.808594 50.851562 L 166.460938 50.851562 C 166.957031 50.875 167.34375 51.285156 167.320312 51.789062 C 167.300781 52.25 166.929688 52.628906 166.460938 52.644531 " fill-opacity="1" fill-rule="nonzero"/></g><g clip-path="url(#a6e64f81a8)"><path fill="#78b45e" d="M 235.375 42.125 C 234.96875 40.855469 234.480469 39.605469 233.917969 38.398438 C 231.429688 33.066406 227.789062 28.355469 223.257812 24.601562 C 223.066406 24.441406 222.792969 24.441406 222.601562 24.601562 C 218.074219 28.355469 214.4375 33.066406 211.945312 38.398438 C 211.382812 39.605469 210.890625 40.855469 210.484375 42.125 C 215.796875 35.246094 225.683594 33.988281 232.554688 39.300781 C 233.613281 40.117188 234.5625 41.066406 235.375 42.125 Z M 235.375 61.375 C 230.058594 68.25 220.179688 69.511719 213.304688 64.195312 C 212.25 63.382812 211.300781 62.429688 210.484375 61.375 C 210.890625 62.648438 211.382812 63.898438 211.945312 65.105469 C 214.4375 70.433594 218.074219 75.140625 222.601562 78.894531 C 222.792969 79.054688 223.066406 79.054688 223.257812 78.894531 C 227.789062 75.140625 231.425781 70.433594 233.917969 65.105469 C 234.480469 63.898438 234.96875 62.648438 235.371094 61.375 Z M 237.042969 51.984375 C 237.171875 44.28125 231.03125 37.945312 223.335938 37.808594 C 223.203125 37.808594 223.0625 37.808594 222.929688 37.808594 C 215.230469 37.710938 208.90625 43.867188 208.800781 51.566406 C 208.703125 59.269531 214.863281 65.59375 222.5625 65.691406 C 222.683594 65.691406 222.808594 65.691406 222.929688 65.691406 C 230.609375 65.789062 236.917969 59.660156 237.042969 51.984375 Z M 238.652344 50.511719 C 238.847656 55.800781 237.78125 61.0625 235.542969 65.859375 C 232.9375 71.425781 229.132812 76.351562 224.402344 80.273438 C 223.546875 80.980469 222.308594 80.980469 221.457031 80.273438 C 216.726562 76.351562 212.925781 71.425781 210.320312 65.859375 C 206.140625 56.914062 206.140625 46.574219 210.320312 37.628906 C 212.925781 32.066406 216.726562 27.140625 221.457031 23.21875 C 222.308594 22.511719 223.546875 22.511719 224.402344 23.21875 C 229.132812 27.140625 232.9375 32.066406 235.542969 37.628906 C 237.429688 41.675781 238.488281 46.054688 238.652344 50.511719 " fill-opacity="1" fill-rule="nonzero"/></g><path fill="#78b45e" d="M 222.929688 46.460938 C 225.847656 46.40625 228.261719 48.71875 228.324219 51.636719 C 228.386719 54.558594 226.070312 56.972656 223.148438 57.035156 C 223.078125 57.035156 223.003906 57.035156 222.929688 57.035156 C 220.011719 57.097656 217.59375 54.78125 217.535156 51.859375 C 217.476562 48.9375 219.792969 46.523438 222.710938 46.460938 C 222.785156 46.460938 222.855469 46.460938 222.929688 46.460938 " fill-opacity="1" fill-rule="nonzero"/><path fill="#78b45e" d="M 241.253906 70.417969 L 238.269531 66.84375 C 237.960938 66.457031 238.023438 65.894531 238.410156 65.585938 C 238.78125 65.285156 239.328125 65.332031 239.648438 65.699219 L 242.628906 69.273438 C 242.941406 69.660156 242.878906 70.222656 242.492188 70.53125 C 242.113281 70.835938 241.566406 70.785156 241.253906 70.417969 " fill-opacity="1" fill-rule="nonzero"/><path fill="#78b45e" d="M 242.628906 34.230469 L 239.648438 37.808594 C 239.328125 38.1875 238.761719 38.238281 238.382812 37.921875 C 238.003906 37.597656 237.949219 37.035156 238.269531 36.652344 L 241.253906 33.078125 C 241.578125 32.707031 242.144531 32.660156 242.515625 32.992188 C 242.882812 33.304688 242.929688 33.847656 242.628906 34.230469 " fill-opacity="1" fill-rule="nonzero"/><g clip-path="url(#010243ef77)"><path fill="#78b45e" d="M 246.84375 52.644531 L 242.191406 52.644531 C 241.695312 52.628906 241.308594 52.210938 241.328125 51.714844 C 241.351562 51.246094 241.722656 50.875 242.191406 50.851562 L 246.84375 50.851562 C 247.339844 50.875 247.726562 51.285156 247.707031 51.789062 C 247.6875 52.25 247.3125 52.628906 246.84375 52.644531 " fill-opacity="1" fill-rule="nonzero"/></g></svg>