<svg xmlns="http://www.w3.org/2000/svg" xmlns:xlink="http://www.w3.org/1999/xlink" width="200" zoomAndPan="magnify" viewBox="0 0 150 149.999998" height="200" preserveAspectRatio="xMidYMid meet" version="1.0"><defs><clipPath id="546b437455"><path d="M 0 3 L 150 3 L 150 148.296875 L 0 148.296875 Z M 0 3 " clip-rule="nonzero"/></clipPath><clipPath id="547984f5dd"><path d="M 0 3 L 142 3 L 142 148.296875 L 0 148.296875 Z M 0 3 " clip-rule="nonzero"/></clipPath><clipPath id="ebcc87804a"><path d="M 30 51 L 136 51 L 136 148.296875 L 30 148.296875 Z M 30 51 " clip-rule="nonzero"/></clipPath><clipPath id="2c91df951f"><path d="M 11 88 L 150 88 L 150 148.296875 L 11 148.296875 Z M 11 88 " clip-rule="nonzero"/></clipPath></defs><g clip-path="url(#546b437455)"><path fill="#685f6c" d="M 140.019531 88.316406 L 135.1875 54.421875 L 135.445312 54.421875 C 135.695312 54.421875 135.898438 54.21875 135.898438 53.96875 C 135.898438 53.71875 135.695312 53.515625 135.445312 53.515625 L 135.058594 53.515625 L 134.902344 52.429688 L 134.984375 52.429688 C 135.234375 52.429688 135.4375 52.226562 135.4375 51.976562 C 135.4375 51.726562 135.234375 51.523438 134.984375 51.523438 L 134.773438 51.523438 L 134.003906 46.125 L 131.238281 46.125 C 131.4375 44.328125 131.636719 42.535156 131.835938 40.738281 C 132.808594 41.0625 133.929688 40.949219 134.808594 40.375 C 136.007812 39.601562 136.402344 38.121094 136.042969 36.785156 C 139.222656 35.222656 141.519531 31.890625 141.597656 28.292969 C 141.683594 24.222656 138.9375 20.3125 135.113281 18.949219 C 134.101562 18.589844 132.945312 18.382812 131.875 18.613281 C 131.566406 16.371094 130.253906 14.296875 128.203125 13.207031 C 125.371094 11.699219 121.792969 12.257812 119.601562 14.601562 C 119.292969 14.933594 119.015625 15.296875 118.777344 15.675781 C 117.140625 13.519531 114.433594 12.222656 111.695312 12.507812 C 108.285156 12.867188 105.363281 15.457031 104.734375 18.855469 C 104.511719 20.035156 104.566406 21.226562 104.855469 22.363281 C 103.480469 21.648438 101.78125 21.554688 100.378906 22.347656 C 100.136719 22.484375 99.917969 22.636719 99.71875 22.808594 C 98.929688 21.75 97.363281 21.179688 96.054688 21.15625 C 94.355469 21.125 92.757812 21.859375 91.648438 23.105469 C 91.644531 23.105469 91.640625 23.109375 91.636719 23.113281 C 91.554688 22.710938 91.429688 22.320312 91.257812 21.933594 C 90.8125 20.910156 90.066406 20.050781 89.15625 19.425781 C 91.851562 15.542969 91.027344 9.667969 87.554688 6.433594 C 82.835938 2.035156 75.417969 2.484375 70.273438 5.808594 C 67.257812 7.757812 64.84375 10.496094 62.960938 13.546875 C 61.285156 12.742188 59.261719 12.757812 57.648438 13.765625 C 56.566406 14.4375 55.800781 15.484375 55.410156 16.660156 C 53.777344 16.144531 51.890625 16.398438 50.363281 17.207031 C 48.035156 18.441406 46.464844 20.777344 45.867188 23.316406 C 44.589844 28.761719 48.359375 34.011719 53.402344 35.796875 C 56.296875 36.820312 59.503906 36.726562 62.421875 35.816406 C 63.859375 37.695312 65.953125 39.054688 68.265625 39.535156 C 70.71875 40.046875 73.277344 39.550781 75.398438 38.273438 C 75.921875 39.613281 77.289062 40.554688 78.730469 40.832031 C 80.714844 41.207031 82.648438 40.257812 84.320312 39.222656 C 84.550781 41.433594 84.777344 43.65625 85.015625 45.871094 C 85.007812 45.925781 85 45.984375 85.015625 46.046875 C 85.019531 46.074219 85.027344 46.097656 85.03125 46.125 L 83.335938 46.125 L 82.566406 51.523438 L 82.5 51.523438 C 82.25 51.523438 82.046875 51.726562 82.046875 51.976562 C 82.046875 52.203125 82.21875 52.386719 82.4375 52.417969 L 82.28125 53.515625 L 82.039062 53.515625 C 81.789062 53.515625 81.585938 53.71875 81.585938 53.96875 C 81.585938 54.21875 81.789062 54.421875 82.039062 54.421875 L 82.152344 54.421875 L 77.320312 88.316406 L 67.921875 88.316406 L 67.921875 74.226562 L 62.949219 75.441406 C 62.925781 75.441406 62.90625 75.429688 62.886719 75.429688 C 62.789062 75.429688 62.699219 75.46875 62.625 75.519531 L 0.0117188 90.8125 L 0.0117188 148.285156 L 149.984375 148.285156 L 149.984375 88.316406 Z M 98.140625 54.421875 L 98.398438 54.421875 C 98.648438 54.421875 98.851562 54.21875 98.851562 53.96875 C 98.851562 53.71875 98.648438 53.515625 98.398438 53.515625 L 98.011719 53.515625 L 97.855469 52.429688 L 97.9375 52.429688 C 98.1875 52.429688 98.390625 52.226562 98.390625 51.976562 C 98.390625 51.726562 98.1875 51.523438 97.9375 51.523438 L 97.726562 51.523438 L 96.957031 46.125 L 93.230469 46.125 C 93.402344 45.003906 93.582031 43.886719 93.757812 42.769531 C 95.390625 43.554688 97.476562 43.992188 98.960938 42.742188 C 99.082031 42.640625 99.195312 42.523438 99.300781 42.402344 C 100.671875 44.066406 102.875 44.988281 105.042969 44.589844 C 107.148438 44.203125 108.953125 42.589844 109.640625 40.570312 C 110.410156 41.070312 111.332031 41.34375 112.277344 41.28125 C 113.734375 41.183594 115.027344 40.289062 115.75 39.054688 C 116.558594 40.199219 117.828125 41.007812 119.242188 41.144531 C 120.445312 41.261719 121.652344 40.894531 122.617188 40.179688 C 122.515625 42.160156 122.414062 44.144531 122.304688 46.125 L 120.382812 46.125 L 119.613281 51.523438 L 119.546875 51.523438 C 119.296875 51.523438 119.09375 51.726562 119.09375 51.976562 C 119.09375 52.203125 119.265625 52.386719 119.484375 52.417969 L 119.328125 53.515625 L 119.085938 53.515625 C 118.835938 53.515625 118.632812 53.71875 118.632812 53.96875 C 118.632812 54.21875 118.835938 54.421875 119.085938 54.421875 L 119.199219 54.421875 L 114.367188 88.316406 L 102.972656 88.316406 Z M 98.140625 54.421875 " fill-opacity="1" fill-rule="nonzero"/></g><g clip-path="url(#547984f5dd)"><path fill="#685f6c" d="M 141.597656 28.292969 C 141.683594 24.222656 138.9375 20.3125 135.113281 18.949219 C 134.101562 18.589844 132.945312 18.382812 131.875 18.613281 C 131.566406 16.371094 130.253906 14.296875 128.203125 13.207031 C 125.371094 11.699219 121.792969 12.257812 119.601562 14.601562 C 119.292969 14.933594 119.015625 15.296875 118.777344 15.675781 C 117.140625 13.519531 114.433594 12.222656 111.695312 12.507812 C 108.285156 12.867188 105.363281 15.457031 104.734375 18.855469 C 104.511719 20.035156 104.566406 21.226562 104.855469 22.363281 C 103.480469 21.648438 101.78125 21.554688 100.378906 22.347656 C 100.136719 22.484375 99.917969 22.636719 99.71875 22.808594 C 98.929688 21.75 97.363281 21.179688 96.054688 21.15625 C 94.355469 21.125 92.757812 21.859375 91.648438 23.105469 C 91.644531 23.105469 91.640625 23.109375 91.636719 23.113281 C 91.554688 22.710938 91.429688 22.320312 91.257812 21.933594 C 90.8125 20.910156 90.066406 20.050781 89.15625 19.425781 C 91.851562 15.542969 91.027344 9.667969 87.554688 6.433594 C 82.835938 2.035156 75.417969 2.484375 70.273438 5.808594 C 67.257812 7.757812 64.84375 10.496094 62.960938 13.546875 C 61.285156 12.742188 59.261719 12.757812 57.648438 13.765625 C 56.566406 14.4375 55.800781 15.484375 55.410156 16.660156 C 53.777344 16.144531 51.890625 16.398438 50.363281 17.207031 C 48.03125 18.441406 46.464844 20.777344 45.867188 23.316406 C 44.589844 28.761719 48.359375 34.011719 53.402344 35.796875 C 56.296875 36.820312 59.503906 36.726562 62.421875 35.816406 C 63.859375 37.695312 65.953125 39.054688 68.265625 39.535156 C 70.71875 40.046875 73.277344 39.550781 75.394531 38.273438 C 75.921875 39.613281 77.289062 40.554688 78.730469 40.832031 C 80.714844 41.207031 82.648438 40.257812 84.320312 39.222656 C 84.550781 41.433594 84.777344 43.65625 85.015625 45.871094 C 85.007812 45.925781 85 45.984375 85.015625 46.046875 C 85.019531 46.074219 85.027344 46.097656 85.03125 46.125 L 93.230469 46.125 C 93.402344 45.003906 93.582031 43.886719 93.757812 42.769531 C 95.390625 43.554688 97.476562 43.992188 98.960938 42.742188 C 99.082031 42.640625 99.195312 42.523438 99.300781 42.402344 C 100.671875 44.070312 102.875 44.988281 105.042969 44.589844 C 107.148438 44.203125 108.953125 42.589844 109.640625 40.570312 C 110.410156 41.070312 111.332031 41.34375 112.277344 41.28125 C 113.734375 41.183594 115.027344 40.289062 115.75 39.054688 C 116.558594 40.199219 117.828125 41.007812 119.242188 41.144531 C 120.445312 41.261719 121.652344 40.894531 122.617188 40.183594 C 122.515625 42.160156 122.414062 44.144531 122.304688 46.125 L 131.238281 46.125 C 131.4375 44.328125 131.636719 42.535156 131.835938 40.738281 C 132.808594 41.0625 133.929688 40.949219 134.808594 40.375 C 136.007812 39.601562 136.402344 38.121094 136.042969 36.785156 C 139.222656 35.222656 141.519531 31.890625 141.597656 28.292969 Z M 67.75 30.507812 C 67.125 31.519531 65.902344 32.070312 64.738281 31.730469 C 63.894531 31.488281 63.277344 30.808594 63.011719 30.003906 C 61.359375 30.941406 59.125 30.710938 57.78125 29.300781 C 56.214844 27.664062 56.382812 24.917969 57.925781 23.34375 C 58.285156 22.980469 58.921875 23.613281 58.566406 23.976562 C 57.355469 25.21875 57.21875 27.359375 58.425781 28.664062 C 59.585938 29.921875 61.726562 29.992188 63.015625 28.910156 C 63.328125 28.648438 63.753906 28.878906 63.769531 29.269531 C 63.847656 30.980469 66.113281 31.496094 66.972656 30.042969 C 67.269531 29.539062 68.054688 30.011719 67.75 30.507812 Z M 84.222656 32.375 C 82.386719 32.566406 80.523438 31.074219 80.40625 29.199219 C 80.386719 28.914062 80.558594 28.640625 80.878906 28.660156 C 81.234375 28.679688 81.277344 28.988281 81.320312 29.265625 C 81.378906 29.660156 81.535156 30.023438 81.761719 30.34375 C 82.183594 30.941406 82.867188 31.382812 83.59375 31.472656 C 85.09375 31.652344 86.546875 30.179688 86.363281 28.667969 C 86.289062 28.085938 87.207031 27.941406 87.253906 28.519531 C 87.402344 30.332031 86.09375 32.179688 84.222656 32.375 Z M 115.121094 33.425781 C 114.597656 35.230469 113.070312 36.679688 111.183594 36.941406 C 109.425781 37.191406 107.644531 36.34375 106.632812 34.914062 C 106.503906 35.015625 106.363281 35.109375 106.210938 35.183594 C 105.523438 35.527344 104.726562 35.523438 104.042969 35.164062 C 103.347656 34.800781 102.855469 34.074219 102.769531 33.289062 C 102.707031 32.710938 103.609375 32.585938 103.667969 33.167969 C 103.738281 33.828125 104.261719 34.441406 104.9375 34.523438 C 105.230469 34.5625 105.507812 34.511719 105.757812 34.394531 C 106.015625 34.273438 106.214844 34.105469 106.367188 33.894531 C 106.367188 33.894531 106.371094 33.890625 106.375 33.886719 C 106.378906 33.878906 106.386719 33.875 106.390625 33.867188 C 106.496094 33.71875 106.59375 33.589844 106.789062 33.570312 C 106.972656 33.554688 107.144531 33.65625 107.226562 33.820312 C 107.292969 33.949219 107.285156 34.070312 107.242188 34.183594 C 108.011719 35.4375 109.503906 36.238281 110.980469 36.054688 C 112.484375 35.867188 113.878906 34.695312 114.242188 33.199219 C 114.382812 32.628906 115.285156 32.867188 115.121094 33.425781 Z M 136.4375 30.550781 C 135.964844 31.136719 135.144531 31.378906 134.425781 31.171875 C 134.183594 31.101562 134.082031 30.816406 134.148438 30.59375 C 134.222656 30.347656 134.5 30.25 134.726562 30.316406 C 134.742188 30.320312 134.761719 30.324219 134.78125 30.332031 C 134.78125 30.332031 134.78125 30.332031 134.785156 30.332031 C 134.820312 30.335938 134.851562 30.339844 134.886719 30.34375 C 134.976562 30.347656 135.019531 30.347656 135.085938 30.335938 C 135.152344 30.324219 135.222656 30.304688 135.289062 30.285156 C 135.300781 30.277344 135.316406 30.273438 135.332031 30.269531 C 135.335938 30.265625 135.332031 30.265625 135.339844 30.265625 C 135.371094 30.246094 135.40625 30.234375 135.433594 30.214844 C 135.464844 30.199219 135.496094 30.179688 135.527344 30.160156 C 135.539062 30.152344 135.585938 30.117188 135.601562 30.105469 C 135.648438 30.066406 135.695312 30.027344 135.734375 29.980469 C 135.746094 29.96875 135.796875 29.898438 135.796875 29.902344 C 135.808594 29.882812 135.820312 29.867188 135.832031 29.847656 C 135.851562 29.816406 135.867188 29.785156 135.882812 29.75 C 135.890625 29.734375 135.894531 29.722656 135.902344 29.707031 C 135.914062 29.640625 135.933594 29.574219 135.945312 29.507812 C 135.945312 29.488281 135.949219 29.449219 135.949219 29.433594 C 135.949219 29.390625 135.949219 29.351562 135.945312 29.308594 C 135.945312 29.292969 135.933594 29.230469 135.933594 29.238281 C 135.929688 29.210938 135.921875 29.183594 135.914062 29.15625 C 135.902344 29.117188 135.890625 29.074219 135.875 29.035156 C 135.871094 29.027344 135.859375 29 135.851562 28.980469 C 135.816406 28.914062 135.78125 28.851562 135.738281 28.789062 C 135.726562 28.773438 135.710938 28.753906 135.699219 28.738281 C 135.6875 28.726562 135.664062 28.699219 135.652344 28.6875 C 135.617188 28.652344 135.582031 28.617188 135.542969 28.585938 C 135.535156 28.582031 135.519531 28.570312 135.503906 28.5625 C 135.425781 28.515625 135.351562 28.476562 135.269531 28.441406 C 135.03125 28.355469 134.941406 28.074219 135.023438 27.851562 C 135.109375 27.605469 135.390625 27.53125 135.613281 27.605469 C 136.015625 27.734375 136.375 28.0625 136.582031 28.425781 C 136.972656 29.109375 136.9375 29.933594 136.4375 30.550781 Z M 63.339844 75.882812 L 63.339844 122.382812 C 63.339844 122.632812 63.136719 122.835938 62.886719 122.835938 C 62.636719 122.835938 62.433594 122.632812 62.433594 122.382812 L 62.433594 75.882812 C 62.433594 75.730469 62.511719 75.605469 62.625 75.519531 L 0.0117188 90.8125 L 0.0117188 148.285156 L 30.261719 148.285156 L 30.261719 125.746094 L 50.03125 125.746094 L 50.03125 148.285156 L 67.921875 148.285156 L 67.921875 74.226562 L 62.949219 75.441406 C 63.167969 75.476562 63.339844 75.65625 63.339844 75.882812 Z M 19.539062 118.992188 L 11.738281 118.992188 L 11.738281 111.175781 L 19.539062 111.175781 Z M 19.539062 106.550781 L 11.738281 106.550781 L 11.738281 98.730469 L 19.539062 98.730469 Z M 33.253906 106.550781 L 25.453125 106.550781 L 25.453125 98.730469 L 33.253906 98.730469 Z M 33.253906 106.550781 " fill-opacity="1" fill-rule="nonzero"/></g><g clip-path="url(#ebcc87804a)"><path fill="#2c3242" d="M 119.09375 51.976562 C 119.09375 51.726562 119.296875 51.523438 119.546875 51.523438 L 134.984375 51.523438 C 135.234375 51.523438 135.4375 51.726562 135.4375 51.976562 C 135.4375 52.226562 135.234375 52.429688 134.984375 52.429688 L 119.546875 52.429688 C 119.523438 52.429688 119.503906 52.421875 119.484375 52.417969 C 119.265625 52.386719 119.09375 52.203125 119.09375 51.976562 Z M 135.445312 53.515625 L 119.085938 53.515625 C 118.835938 53.515625 118.632812 53.71875 118.632812 53.96875 C 118.632812 54.21875 118.835938 54.421875 119.085938 54.421875 L 135.445312 54.421875 C 135.695312 54.421875 135.898438 54.21875 135.898438 53.96875 C 135.898438 53.71875 135.695312 53.515625 135.445312 53.515625 Z M 88.867188 148.285156 L 129.070312 148.285156 L 129.070312 129.46875 L 88.867188 129.46875 Z M 88.867188 128.558594 L 129.070312 128.558594 L 129.070312 125.746094 L 88.867188 125.746094 Z M 30.261719 148.285156 L 50.03125 148.285156 L 50.03125 125.746094 L 30.261719 125.746094 Z M 82.4375 52.417969 C 82.457031 52.421875 82.476562 52.429688 82.5 52.429688 L 97.9375 52.429688 C 98.1875 52.429688 98.390625 52.226562 98.390625 51.976562 C 98.390625 51.726562 98.1875 51.523438 97.9375 51.523438 L 82.5 51.523438 C 82.25 51.523438 82.046875 51.726562 82.046875 51.976562 C 82.046875 52.203125 82.21875 52.386719 82.4375 52.417969 Z M 98.398438 54.421875 C 98.648438 54.421875 98.851562 54.21875 98.851562 53.96875 C 98.851562 53.71875 98.648438 53.515625 98.398438 53.515625 L 82.039062 53.515625 C 81.789062 53.515625 81.585938 53.71875 81.585938 53.96875 C 81.585938 54.21875 81.789062 54.421875 82.039062 54.421875 Z M 62.949219 75.441406 C 62.925781 75.441406 62.90625 75.429688 62.886719 75.429688 C 62.789062 75.429688 62.699219 75.46875 62.625 75.519531 C 62.511719 75.605469 62.433594 75.730469 62.433594 75.882812 L 62.433594 122.382812 C 62.433594 122.632812 62.636719 122.835938 62.886719 122.835938 C 63.136719 122.835938 63.339844 122.632812 63.339844 122.382812 L 63.339844 75.882812 C 63.339844 75.65625 63.167969 75.476562 62.949219 75.441406 Z M 62.949219 75.441406 " fill-opacity="1" fill-rule="nonzero"/></g><g clip-path="url(#2c91df951f)"><path fill="#d98e3f" d="M 140.019531 88.316406 L 67.921875 88.316406 L 67.921875 148.285156 L 88.867188 148.285156 L 88.867188 129.46875 L 129.070312 129.46875 L 129.070312 148.285156 L 149.984375 148.285156 L 149.984375 88.316406 Z M 82.085938 117.265625 L 74.289062 117.265625 L 74.289062 109.449219 L 82.085938 109.449219 Z M 104.96875 109.449219 L 112.769531 109.449219 L 112.769531 117.265625 L 104.96875 117.265625 Z M 89.628906 109.449219 L 97.429688 109.449219 L 97.429688 117.265625 L 89.628906 117.265625 Z M 129.070312 128.558594 L 88.867188 128.558594 L 88.867188 125.746094 L 129.070312 125.746094 Z M 11.738281 98.730469 L 19.539062 98.730469 L 19.539062 106.550781 L 11.738281 106.550781 Z M 25.453125 98.730469 L 33.253906 98.730469 L 33.253906 106.550781 L 25.453125 106.550781 Z M 11.738281 111.175781 L 19.539062 111.175781 L 19.539062 118.992188 L 11.738281 118.992188 Z M 11.738281 111.175781 " fill-opacity="1" fill-rule="nonzero"/></g><path fill="#f3f0e3" d="M 74.289062 109.449219 L 82.085938 109.449219 L 82.085938 117.265625 L 74.289062 117.265625 Z M 89.628906 117.265625 L 97.429688 117.265625 L 97.429688 109.449219 L 89.628906 109.449219 Z M 104.96875 117.265625 L 112.769531 117.265625 L 112.769531 109.449219 L 104.96875 109.449219 Z M 85.628906 68.003906 C 84.367188 70.433594 83.152344 72.894531 81.851562 75.304688 C 81.578125 75.816406 82.398438 76.230469 82.664062 75.707031 C 83.886719 73.285156 85.15625 70.886719 86.402344 68.472656 C 86.667969 67.957031 85.898438 67.480469 85.628906 68.003906 Z M 87.617188 69.277344 C 86.445312 71.6875 85.265625 74.09375 84.097656 76.503906 C 83.84375 77.027344 84.640625 77.453125 84.898438 76.925781 C 86.09375 74.480469 87.273438 72.03125 88.46875 69.585938 C 88.722656 69.0625 87.867188 68.753906 87.617188 69.277344 Z M 119.878906 68.820312 C 119.527344 70.828125 119.167969 72.839844 118.820312 74.851562 C 118.722656 75.425781 119.601562 75.621094 119.703125 75.046875 C 120.0625 73.027344 120.414062 71.011719 120.769531 68.992188 C 120.867188 68.417969 119.980469 68.242188 119.878906 68.820312 Z M 119.25 77.867188 C 118.664062 77.867188 118.667969 78.773438 119.25 78.773438 C 119.835938 78.773438 119.832031 77.867188 119.25 77.867188 Z M 119.25 77.867188 " fill-opacity="1" fill-rule="nonzero"/><path fill="#97909d" d="M 134.773438 51.523438 L 119.613281 51.523438 L 120.382812 46.125 L 134.003906 46.125 Z M 134.902344 52.429688 L 119.546875 52.429688 C 119.523438 52.429688 119.503906 52.421875 119.484375 52.417969 L 119.328125 53.515625 L 135.058594 53.515625 Z M 140.019531 88.316406 L 114.367188 88.316406 L 119.199219 54.421875 L 135.1875 54.421875 Z M 119.25 77.867188 C 118.664062 77.867188 118.667969 78.773438 119.25 78.773438 C 119.835938 78.773438 119.832031 77.867188 119.25 77.867188 Z M 120.769531 68.992188 C 120.867188 68.417969 119.980469 68.242188 119.878906 68.820312 C 119.527344 70.828125 119.167969 72.839844 118.820312 74.851562 C 118.722656 75.425781 119.601562 75.621094 119.703125 75.046875 C 120.0625 73.027344 120.414062 71.011719 120.769531 68.992188 Z M 98.140625 54.421875 L 102.972656 88.316406 L 77.320312 88.316406 L 82.152344 54.421875 Z M 82.664062 75.707031 C 83.886719 73.285156 85.15625 70.886719 86.402344 68.472656 C 86.667969 67.957031 85.898438 67.480469 85.628906 68.003906 C 84.367188 70.433594 83.152344 72.894531 81.851562 75.304688 C 81.578125 75.816406 82.398438 76.230469 82.664062 75.707031 Z M 87.617188 69.277344 C 86.445312 71.6875 85.265625 74.09375 84.097656 76.503906 C 83.84375 77.027344 84.640625 77.453125 84.898438 76.925781 C 86.09375 74.480469 87.273438 72.03125 88.46875 69.585938 C 88.722656 69.0625 87.867188 68.753906 87.617188 69.277344 Z M 83.335938 46.125 L 82.566406 51.523438 L 97.726562 51.523438 L 96.957031 46.125 Z M 82.4375 52.417969 L 82.28125 53.515625 L 98.011719 53.515625 L 97.855469 52.429688 L 82.5 52.429688 C 82.476562 52.429688 82.457031 52.421875 82.4375 52.417969 Z M 66.96875 30.042969 C 66.113281 31.496094 63.847656 30.980469 63.769531 29.269531 C 63.753906 28.878906 63.328125 28.648438 63.015625 28.910156 C 61.726562 29.992188 59.585938 29.921875 58.425781 28.664062 C 57.21875 27.359375 57.355469 25.21875 58.566406 23.976562 C 58.921875 23.613281 58.285156 22.980469 57.925781 23.347656 C 56.382812 24.917969 56.214844 27.664062 57.78125 29.300781 C 59.125 30.710938 61.359375 30.941406 63.011719 30.003906 C 63.277344 30.8125 63.894531 31.488281 64.738281 31.730469 C 65.902344 32.070312 67.125 31.519531 67.75 30.507812 C 68.054688 30.011719 67.269531 29.539062 66.96875 30.042969 Z M 84.222656 32.375 C 86.09375 32.179688 87.402344 30.332031 87.253906 28.519531 C 87.207031 27.941406 86.289062 28.085938 86.363281 28.667969 C 86.546875 30.179688 85.09375 31.652344 83.59375 31.472656 C 82.867188 31.382812 82.183594 30.941406 81.761719 30.34375 C 81.535156 30.023438 81.378906 29.660156 81.320312 29.265625 C 81.277344 28.988281 81.234375 28.679688 80.878906 28.660156 C 80.558594 28.640625 80.386719 28.914062 80.40625 29.199219 C 80.523438 31.074219 82.386719 32.566406 84.222656 32.375 Z M 114.242188 33.199219 C 113.878906 34.695312 112.484375 35.867188 110.980469 36.054688 C 109.503906 36.238281 108.011719 35.4375 107.242188 34.183594 C 107.285156 34.070312 107.292969 33.949219 107.226562 33.820312 C 107.144531 33.65625 106.972656 33.554688 106.789062 33.570312 C 106.59375 33.589844 106.496094 33.71875 106.390625 33.867188 C 106.386719 33.875 106.378906 33.878906 106.375 33.886719 C 106.371094 33.890625 106.367188 33.894531 106.363281 33.894531 C 106.214844 34.105469 106.015625 34.273438 105.757812 34.394531 C 105.507812 34.511719 105.230469 34.5625 104.9375 34.523438 C 104.261719 34.441406 103.738281 33.828125 103.667969 33.167969 C 103.609375 32.585938 102.707031 32.710938 102.769531 33.289062 C 102.855469 34.074219 103.347656 34.800781 104.042969 35.164062 C 104.726562 35.523438 105.523438 35.527344 106.210938 35.183594 C 106.363281 35.109375 106.503906 35.015625 106.632812 34.914062 C 107.644531 36.34375 109.425781 37.191406 111.183594 36.941406 C 113.070312 36.679688 114.597656 35.230469 115.121094 33.425781 C 115.285156 32.867188 114.382812 32.628906 114.242188 33.199219 Z M 134.425781 31.171875 C 135.144531 31.378906 135.964844 31.136719 136.4375 30.550781 C 136.9375 29.933594 136.972656 29.109375 136.582031 28.425781 C 136.375 28.0625 136.015625 27.734375 135.613281 27.605469 C 135.390625 27.53125 135.109375 27.605469 135.023438 27.851562 C 134.941406 28.074219 135.03125 28.355469 135.269531 28.441406 C 135.355469 28.472656 135.425781 28.515625 135.503906 28.5625 C 135.519531 28.570312 135.535156 28.582031 135.542969 28.585938 C 135.582031 28.617188 135.617188 28.652344 135.652344 28.6875 C 135.664062 28.699219 135.691406 28.726562 135.699219 28.738281 C 135.710938 28.753906 135.726562 28.773438 135.738281 28.789062 C 135.78125 28.851562 135.816406 28.914062 135.851562 28.980469 C 135.859375 28.996094 135.871094 29.027344 135.875 29.035156 C 135.890625 29.074219 135.902344 29.117188 135.914062 29.15625 C 135.921875 29.183594 135.929688 29.210938 135.933594 29.238281 C 135.933594 29.230469 135.945312 29.292969 135.945312 29.308594 C 135.949219 29.351562 135.953125 29.390625 135.953125 29.433594 C 135.953125 29.445312 135.945312 29.488281 135.945312 29.507812 C 135.933594 29.574219 135.914062 29.640625 135.902344 29.707031 C 135.894531 29.722656 135.890625 29.734375 135.882812 29.75 C 135.867188 29.785156 135.851562 29.816406 135.832031 29.847656 C 135.820312 29.867188 135.808594 29.882812 135.796875 29.902344 C 135.796875 29.898438 135.746094 29.96875 135.734375 29.980469 C 135.695312 30.027344 135.648438 30.066406 135.601562 30.105469 C 135.585938 30.117188 135.539062 30.152344 135.527344 30.160156 C 135.496094 30.179688 135.464844 30.199219 135.433594 30.214844 C 135.40625 30.234375 135.371094 30.246094 135.339844 30.261719 C 135.332031 30.265625 135.335938 30.265625 135.332031 30.269531 C 135.316406 30.273438 135.300781 30.277344 135.289062 30.285156 C 135.222656 30.304688 135.152344 30.324219 135.085938 30.335938 C 135.019531 30.347656 134.976562 30.347656 134.886719 30.34375 C 134.851562 30.339844 134.820312 30.335938 134.785156 30.332031 C 134.78125 30.332031 134.78125 30.332031 134.78125 30.332031 C 134.761719 30.324219 134.746094 30.320312 134.726562 30.316406 C 134.5 30.25 134.222656 30.347656 134.148438 30.59375 C 134.082031 30.816406 134.183594 31.101562 134.425781 31.171875 Z M 134.425781 31.171875 " fill-opacity="1" fill-rule="nonzero"/></svg>